solid case-k
facet normal 2.37711343795021e-014 -1.0 2.25597318603742e-014
  outer loop
    vertex 141.000000000001 0.750000000000032 2.9999999999998
    vertex 170.0 0.750000000000653 -1.11191278406864e-011
    vertex 170.000000000001 0.75000000000089 2.99999999998889
  endloop
endfacet
facet normal 2.37711343795021e-014 -1.0 2.25597318603742e-014
  outer loop
    vertex 170.0 0.750000000000653 -1.11191278406864e-011
    vertex 141.000000000001 0.750000000000032 2.9999999999998
    vertex 141.0 0.749999999999807 -2.00217620260901e-013
  endloop
endfacet
facet normal -1.0 -1.96556791045386e-014 3.75722079711109e-013
  outer loop
    vertex 141.0 12.5 0.999999999999847
    vertex 141.000000000001 0.750000000000032 2.9999999999998
    vertex 141.000000000001 12.5 2.99999999999985
  endloop
endfacet
facet normal -1.0 -1.96556791045386e-014 3.75722079711109e-013
  outer loop
    vertex 141.000000000001 0.750000000000032 2.9999999999998
    vertex 141.0 12.5 0.999999999999847
    vertex 141.0 0.749999999999807 -2.00217620260901e-013
  endloop
endfacet
facet normal -1.0 -1.96556791045386e-014 3.75722079711109e-013
  outer loop
    vertex 141.0 0.749999999999807 -2.00217620260901e-013
    vertex 141.0 12.5 0.999999999999847
    vertex 141.0 12.5 -1.72017955435422e-013
  endloop
endfacet
facet normal -2.27542123074548e-014 1.0 1.87997765504049e-015
  outer loop
    vertex 140.999999999998 74.2499999999997 -2.25597318603832e-014
    vertex 169.999999999999 74.2500000000006 2.99999999998905
    vertex 169.999999999998 74.2500000000006 -1.09358300193207e-011
  endloop
endfacet
facet normal -2.27542123074548e-014 1.0 1.87997765504049e-015
  outer loop
    vertex 169.999999999999 74.2500000000006 2.99999999998905
    vertex 140.999999999998 74.2499999999997 -2.25597318603832e-014
    vertex 140.999999999999 74.2499999999999 2.99999999999996
  endloop
endfacet
facet normal -1.0 -7.89590615113417e-014 3.83515441626519e-013
  outer loop
    vertex 140.999999999999 22.5 0.999999999999857
    vertex 141.0 12.5 -1.72017955435422e-013
    vertex 141.0 12.5 0.999999999999847
  endloop
endfacet
facet normal -1.0 -7.89590615113417e-014 3.83515441626519e-013
  outer loop
    vertex 141.0 12.5 -1.72017955435422e-013
    vertex 140.999999999999 22.5 0.999999999999857
    vertex 140.999999999999 22.4999999999999 -1.12798659301916e-013
  endloop
endfacet
facet normal -1.0 -1.98559124203455e-014 3.76542433596942e-013
  outer loop
    vertex 140.999999999999 74.2499999999999 2.99999999999996
    vertex 140.999999999999 62.4999999999997 0.999999999999954
    vertex 140.999999999999 62.4999999999999 2.99999999999995
  endloop
endfacet
facet normal -1.0 -1.98559124203455e-014 3.76542433596942e-013
  outer loop
    vertex 140.999999999999 62.4999999999997 0.999999999999954
    vertex 140.999999999999 74.2499999999999 2.99999999999996
    vertex 140.999999999998 74.2499999999997 -2.25597318603832e-014
  endloop
endfacet
facet normal -1.0 -1.98559124203455e-014 3.76542433596942e-013
  outer loop
    vertex 140.999999999999 62.4999999999997 0.999999999999954
    vertex 140.999999999998 74.2499999999997 -2.25597318603832e-014
    vertex 140.999999999998 62.4999999999999 -7.61390950287932e-014
  endloop
endfacet
facet normal 2.12960396935507e-027 -1.0 5.6399329650958e-015
  outer loop
    vertex 139.000000000001 12.5 3.00000000000061
    vertex 141.0 12.5 0.999999999999847
    vertex 141.000000000001 12.5 2.99999999999985
  endloop
endfacet
facet normal -1.69197988953166e-014 1.0 -7.89590615113347e-014
  outer loop
    vertex 138.999999999999 62.4999999999999 3.00000000000069
    vertex 140.999999999999 62.4999999999999 2.99999999999995
    vertex 140.999999999999 62.4999999999997 0.999999999999954
  endloop
endfacet
facet normal -0.707106781186813 -5.49293848775448e-014 -0.707106781186282
  outer loop
    vertex 139.0 22.5 3.00000000000062
    vertex 141.0 12.5 0.999999999999847
    vertex 139.000000000001 12.5 3.00000000000061
  endloop
endfacet
facet normal -0.707106781186813 -5.49293848775448e-014 -0.707106781186282
  outer loop
    vertex 141.0 12.5 0.999999999999847
    vertex 139.0 22.5 3.00000000000062
    vertex 140.999999999999 22.5 0.999999999999857
  endloop
endfacet
facet normal 2.53796983429322e-014 1.0 2.81996648253845e-015
  outer loop
    vertex 139.0 22.5 3.00000000000062
    vertex 141.0 22.4999999999999 2.99999999999986
    vertex 140.999999999999 22.5 0.999999999999857
  endloop
endfacet
facet normal 1.92551541287875e-014 -1.0 -1.92901250529345e-015
  outer loop
    vertex 165.499999999999 69.2500000000005 2.99999999999074
    vertex 167.999999999998 69.2500000000005 -1.01800790019979e-011
    vertex 168.0 69.2500000000008 2.99999999998979
  endloop
endfacet
facet normal 1.92551541287875e-014 -1.0 -1.92901250529345e-015
  outer loop
    vertex 167.999999999998 69.2500000000005 -1.01800790019979e-011
    vertex 165.499999999999 69.2500000000005 2.99999999999074
    vertex 165.499999999998 69.2500000000005 -9.24103016330946e-012
  endloop
endfacet
facet normal 1.0 1.99323901738088e-014 -3.7599553100653e-013
  outer loop
    vertex 165.499999999999 5.75000000000032 -9.42150801819253e-012
    vertex 165.499999999999 69.2500000000005 2.99999999999074
    vertex 165.500000000001 5.75000000000055 2.99999999999061
  endloop
endfacet
facet normal 1.0 1.99323901738088e-014 -3.7599553100653e-013
  outer loop
    vertex 165.499999999999 69.2500000000005 2.99999999999074
    vertex 165.499999999999 5.75000000000032 -9.42150801819253e-012
    vertex 165.499999999998 69.2500000000005 -9.24103016330946e-012
  endloop
endfacet
facet normal -1.78451708875138e-014 1.0 1.92901250529292e-015
  outer loop
    vertex 165.499999999999 5.75000000000032 -9.42150801819253e-012
    vertex 168.000000000001 5.7500000000006 2.99999999998967
    vertex 168.0 5.7500000000006 -1.03013375607475e-011
  endloop
endfacet
facet normal -1.78451708875138e-014 1.0 1.92901250529292e-015
  outer loop
    vertex 168.000000000001 5.7500000000006 2.99999999998967
    vertex 165.499999999999 5.75000000000032 -9.42150801819253e-012
    vertex 165.500000000001 5.75000000000055 2.99999999999061
  endloop
endfacet
facet normal -0.707106781187163 -3.38748353217777e-014 -0.707106781185932
  outer loop
    vertex 139.0 22.5 3.00000000000062
    vertex 138.701902961145 12.5 3.29809703885699
    vertex 138.701902961145 22.5 3.29809703885702
  endloop
endfacet
facet normal -0.707106781187163 -3.38748353217777e-014 -0.707106781185932
  outer loop
    vertex 138.701902961145 12.5 3.29809703885699
    vertex 139.0 22.5 3.00000000000062
    vertex 139.000000000001 12.5 3.00000000000061
  endloop
endfacet
facet normal -3.49120895526033e-016 -1.0 2.19041313044413e-015
  outer loop
    vertex 138.701902961145 12.5 3.29809703885699
    vertex 141.000000000001 12.5 2.99999999999985
    vertex 141.000000000001 12.5 3.29809703885613
  endloop
endfacet
facet normal -3.49120895526033e-016 -1.0 2.19041313044413e-015
  outer loop
    vertex 141.000000000001 12.5 2.99999999999985
    vertex 138.701902961145 12.5 3.29809703885699
    vertex 139.000000000001 12.5 3.00000000000061
  endloop
endfacet
facet normal 2.21099204679657e-014 1.0 2.05148545467778e-014
  outer loop
    vertex 139.0 22.5 3.00000000000062
    vertex 141.0 22.4999999999999 3.29809703885615
    vertex 141.0 22.4999999999999 2.99999999999986
  endloop
endfacet
facet normal 2.21099204679657e-014 1.0 2.05148545467778e-014
  outer loop
    vertex 141.0 22.4999999999999 3.29809703885615
    vertex 139.0 22.5 3.00000000000062
    vertex 138.701902961145 22.5 3.29809703885702
  endloop
endfacet
facet normal 3.87983411617795e-015 1.0 1.34378437437669e-013
  outer loop
    vertex 138.999999999999 62.4999999999999 3.00000000000069
    vertex 140.999999999999 62.4999999999998 3.29809703885623
    vertex 140.999999999999 62.4999999999999 2.99999999999995
  endloop
endfacet
facet normal 3.87983411617795e-015 1.0 1.34378437437669e-013
  outer loop
    vertex 140.999999999999 62.4999999999998 3.29809703885623
    vertex 138.999999999999 62.4999999999999 3.00000000000069
    vertex 138.701902961144 62.4999999999999 3.29809703885708
  endloop
endfacet
facet normal 3.75842107678632e-013 -1.93923066990822e-015 1.0
  outer loop
    vertex 169.999999999999 74.2500000000006 2.99999999998905
    vertex 168.0 69.2500000000008 2.99999999998979
    vertex 170.0 43.5000000000005 2.99999999998894
  endloop
endfacet
facet normal 3.75842107678632e-013 -1.93923066990822e-015 1.0
  outer loop
    vertex 168.0 69.2500000000008 2.99999999998979
    vertex 169.999999999999 74.2500000000006 2.99999999998905
    vertex 140.999999999999 74.2499999999999 2.99999999999996
  endloop
endfacet
facet normal 3.75842107678632e-013 -1.93923066990822e-015 1.0
  outer loop
    vertex 170.0 43.5000000000005 2.99999999998894
    vertex 168.0 69.2500000000008 2.99999999998979
    vertex 168.0 43.5000000000005 2.99999999998972
  endloop
endfacet
facet normal 3.75842107678632e-013 -1.93923066990822e-015 1.0
  outer loop
    vertex 140.999999999999 74.2499999999999 2.99999999999996
    vertex 165.499999999999 69.2500000000005 2.99999999999074
    vertex 168.0 69.2500000000008 2.99999999998979
  endloop
endfacet
facet normal 3.75842107678632e-013 -1.93923066990822e-015 1.0
  outer loop
    vertex 165.499999999999 69.2500000000005 2.99999999999074
    vertex 140.999999999999 74.2499999999999 2.99999999999996
    vertex 140.999999999999 62.4999999999999 2.99999999999995
  endloop
endfacet
facet normal 3.75842107678632e-013 -1.93923066990822e-015 1.0
  outer loop
    vertex 165.499999999999 69.2500000000005 2.99999999999074
    vertex 140.999999999999 62.4999999999999 2.99999999999995
    vertex 165.500000000001 5.75000000000055 2.99999999999061
  endloop
endfacet
facet normal 3.75842107678632e-013 -1.93923066990822e-015 1.0
  outer loop
    vertex 165.500000000001 5.75000000000055 2.99999999999061
    vertex 140.999999999999 62.4999999999999 2.99999999999995
    vertex 141.0 52.5004621575152 2.99999999999988
  endloop
endfacet
facet normal 3.75842107678632e-013 -1.93923066990822e-015 1.0
  outer loop
    vertex 165.500000000001 5.75000000000055 2.99999999999061
    vertex 141.0 52.5004621575152 2.99999999999988
    vertex 141.0 22.4999999999999 2.99999999999986
  endloop
endfacet
facet normal 3.75842107678632e-013 -1.93923066990822e-015 1.0
  outer loop
    vertex 165.500000000001 5.75000000000055 2.99999999999061
    vertex 141.0 22.4999999999999 2.99999999999986
    vertex 141.000000000001 12.5 2.99999999999985
  endloop
endfacet
facet normal 3.75842107678632e-013 -1.93923066990822e-015 1.0
  outer loop
    vertex 165.500000000001 5.75000000000055 2.99999999999061
    vertex 141.000000000001 12.5 2.99999999999985
    vertex 141.000000000001 0.750000000000032 2.9999999999998
  endloop
endfacet
facet normal 3.75842107678632e-013 -1.93923066990822e-015 1.0
  outer loop
    vertex 165.500000000001 5.75000000000055 2.99999999999061
    vertex 141.000000000001 0.750000000000032 2.9999999999998
    vertex 168.000000000001 5.7500000000006 2.99999999998967
  endloop
endfacet
facet normal 3.75842107678632e-013 -1.93923066990822e-015 1.0
  outer loop
    vertex 168.000000000001 5.7500000000006 2.99999999998967
    vertex 141.000000000001 0.750000000000032 2.9999999999998
    vertex 170.000000000001 0.75000000000089 2.99999999998889
  endloop
endfacet
facet normal 3.75842107678632e-013 -1.93923066990822e-015 1.0
  outer loop
    vertex 168.000000000001 31.5000000000005 2.99999999998974
    vertex 170.000000000001 0.75000000000089 2.99999999998889
    vertex 170.000000000001 31.5000000000006 2.99999999998899
  endloop
endfacet
facet normal 3.75842107678632e-013 -1.93923066990822e-015 1.0
  outer loop
    vertex 170.000000000001 0.75000000000089 2.99999999998889
    vertex 168.000000000001 31.5000000000005 2.99999999998974
    vertex 168.000000000001 5.7500000000006 2.99999999998967
  endloop
endfacet
facet normal -1.0 -7.89590615113425e-014 3.78395772513182e-013
  outer loop
    vertex 141.0 22.4999999999999 2.99999999999986
    vertex 141.000000000001 12.5 3.29809703885613
    vertex 141.0 22.4999999999999 3.29809703885615
  endloop
endfacet
facet normal -1.0 -7.89590615113425e-014 3.78395772513182e-013
  outer loop
    vertex 141.000000000001 12.5 3.29809703885613
    vertex 141.0 22.4999999999999 2.99999999999986
    vertex 141.000000000001 12.5 2.99999999999985
  endloop
endfacet
facet normal 1.0 2.86210121742224e-014 -4.28764558978664e-013
  outer loop
    vertex 170.000000000001 31.5000000000006 2.99999999998899
    vertex 170.0 43.5000000000005 3.49999999998894
    vertex 170.000000000001 31.5000000000006 3.49999999998899
  endloop
endfacet
facet normal 1.0 2.86210121742224e-014 -4.28764558978664e-013
  outer loop
    vertex 170.0 43.5000000000005 3.49999999998894
    vertex 170.000000000001 31.5000000000006 2.99999999998899
    vertex 170.0 43.5000000000005 2.99999999998894
  endloop
endfacet
facet normal 1.0 2.86210121742224e-014 -4.28764558978664e-013
  outer loop
    vertex 170.0 43.5000000000005 2.99999999998894
    vertex 170.000000000001 31.5000000000006 2.99999999998899
    vertex 170.000000000001 0.75000000000089 2.99999999998889
  endloop
endfacet
facet normal 1.0 2.86210121742224e-014 -4.28764558978664e-013
  outer loop
    vertex 170.0 43.5000000000005 2.99999999998894
    vertex 170.000000000001 0.75000000000089 2.99999999998889
    vertex 170.0 0.750000000000653 -1.11191278406864e-011
  endloop
endfacet
facet normal 1.0 2.86210121742224e-014 -4.28764558978664e-013
  outer loop
    vertex 170.0 43.5000000000005 2.99999999998894
    vertex 170.0 0.750000000000653 -1.11191278406864e-011
    vertex 169.999999999998 74.2500000000006 -1.09358300193207e-011
  endloop
endfacet
facet normal 1.0 2.86210121742224e-014 -4.28764558978664e-013
  outer loop
    vertex 169.999999999998 74.2500000000006 -1.09358300193207e-011
    vertex 169.999999999999 74.2500000000006 2.99999999998905
    vertex 170.0 43.5000000000005 2.99999999998894
  endloop
endfacet
facet normal -1.0 -2.23137556160635e-014 4.02315218176837e-013
  outer loop
    vertex 167.999999999998 69.2500000000005 -1.01800790019979e-011
    vertex 168.0 43.5000000000005 2.99999999998972
    vertex 168.0 69.2500000000008 2.99999999998979
  endloop
endfacet
facet normal -1.0 -2.23137556160635e-014 4.02315218176837e-013
  outer loop
    vertex 168.0 43.5000000000005 2.99999999998972
    vertex 168.000000000001 5.7500000000006 2.99999999998967
    vertex 168.000000000001 31.5000000000005 2.99999999998974
  endloop
endfacet
facet normal -1.0 -2.23137556160635e-014 4.02315218176837e-013
  outer loop
    vertex 168.000000000001 5.7500000000006 2.99999999998967
    vertex 168.0 43.5000000000005 2.99999999998972
    vertex 168.0 5.7500000000006 -1.03013375607475e-011
  endloop
endfacet
facet normal -1.0 -2.23137556160635e-014 4.02315218176837e-013
  outer loop
    vertex 168.0 5.7500000000006 -1.03013375607475e-011
    vertex 168.0 43.5000000000005 2.99999999998972
    vertex 167.999999999998 69.2500000000005 -1.01800790019979e-011
  endloop
endfacet
facet normal 5.49893464096906e-014 -1.0 5.63993296507594e-015
  outer loop
    vertex 168.000000000001 31.5000000000005 3.49999999998974
    vertex 170.000000000001 31.5000000000006 2.99999999998899
    vertex 170.000000000001 31.5000000000006 3.49999999998899
  endloop
endfacet
facet normal 5.49893464096906e-014 -1.0 5.63993296507594e-015
  outer loop
    vertex 170.000000000001 31.5000000000006 2.99999999998899
    vertex 168.000000000001 31.5000000000005 3.49999999998974
    vertex 168.000000000001 31.5000000000005 2.99999999998974
  endloop
endfacet
facet normal -1.26898491714731e-014 1.0 -1.69197988952799e-014
  outer loop
    vertex 170.0 43.5000000000005 2.99999999998894
    vertex 168.0 43.5000000000005 3.49999999998972
    vertex 170.0 43.5000000000005 3.49999999998894
  endloop
endfacet
facet normal -1.26898491714731e-014 1.0 -1.69197988952799e-014
  outer loop
    vertex 168.0 43.5000000000005 3.49999999998972
    vertex 170.0 43.5000000000005 2.99999999998894
    vertex 168.0 43.5000000000005 2.99999999998972
  endloop
endfacet
facet normal -1.0 4.05265211795808e-017 3.75327217164679e-013
  outer loop
    vertex 140.999999999999 52.5004621575149 0.999999999999883
    vertex 140.999999999999 52.0404621575149 0.999999999999922
    vertex 141.0 52.5004621575152 2.99999999999988
  endloop
endfacet
facet normal -1.0 4.05265211795808e-017 3.75327217164679e-013
  outer loop
    vertex 141.0 52.5004621575152 2.99999999999988
    vertex 140.999999999999 22.5 0.999999999999857
    vertex 141.0 22.4999999999999 2.99999999999986
  endloop
endfacet
facet normal -1.0 4.05265211795808e-017 3.75327217164679e-013
  outer loop
    vertex 140.999999999999 22.5 0.999999999999857
    vertex 141.0 52.5004621575152 2.99999999999988
    vertex 140.999999999999 52.0404621575149 0.999999999999922
  endloop
endfacet
facet normal -1.0 4.05265211795808e-017 3.75327217164679e-013
  outer loop
    vertex 140.999999999999 22.5 0.999999999999857
    vertex 140.999999999999 52.0404621575149 0.999999999999922
    vertex 140.999999999999 52.0404621575152 -9.58788604066285e-014
  endloop
endfacet
facet normal -1.0 4.05265211795808e-017 3.75327217164679e-013
  outer loop
    vertex 140.999999999999 22.5 0.999999999999857
    vertex 140.999999999999 52.0404621575152 -9.58788604066285e-014
    vertex 140.999999999999 22.4999999999999 -1.12798659301916e-013
  endloop
endfacet
facet normal -3.7610236308002e-013 1.97397653776488e-015 -1.0
  outer loop
    vertex 140.999999999999 62.4999999999998 3.29809703885623
    vertex 138.701902961144 52.5004621575152 3.29809703885705
    vertex 138.701902961144 62.4999999999999 3.29809703885708
  endloop
endfacet
facet normal -3.7610236308002e-013 1.97397653776488e-015 -1.0
  outer loop
    vertex 138.701902961144 52.5004621575152 3.29809703885705
    vertex 140.999999999999 62.4999999999998 3.29809703885623
    vertex 141.0 52.5004621575152 3.29809703885618
  endloop
endfacet
facet normal 1.0 7.78346721061903e-014 -3.40556195261849e-013
  outer loop
    vertex 141.0 52.5004621575152 3.29809703885618
    vertex 140.999999999999 62.4999999999999 2.99999999999995
    vertex 140.999999999999 62.4999999999998 3.29809703885623
  endloop
endfacet
facet normal 1.0 7.78346721061903e-014 -3.40556195261849e-013
  outer loop
    vertex 140.999999999999 62.4999999999999 2.99999999999995
    vertex 141.0 52.5004621575152 3.29809703885618
    vertex 141.0 52.5004621575152 2.99999999999988
  endloop
endfacet
facet normal -1.0 -7.33331524589446e-014 3.83515441626511e-013
  outer loop
    vertex 140.999999999998 62.4999999999999 -7.61390950287932e-014
    vertex 140.999999999999 52.5004621575149 0.999999999999883
    vertex 140.999999999999 62.4999999999997 0.999999999999954
  endloop
endfacet
facet normal -1.0 -7.33331524589446e-014 3.83515441626511e-013
  outer loop
    vertex 140.999999999999 52.5004621575149 0.999999999999883
    vertex 140.999999999999 52.0404621575152 -9.58788604066285e-014
    vertex 140.999999999999 52.0404621575149 0.999999999999922
  endloop
endfacet
facet normal -1.0 -7.33331524589446e-014 3.83515441626511e-013
  outer loop
    vertex 140.999999999999 52.0404621575152 -9.58788604066285e-014
    vertex 140.999999999999 52.5004621575149 0.999999999999883
    vertex 140.999999999998 62.4999999999999 -7.61390950287932e-014
  endloop
endfacet
facet normal -0.707106781186816 -5.18517692902837e-014 -0.707106781186279
  outer loop
    vertex 140.999999999999 62.4999999999997 0.999999999999954
    vertex 139.0 52.5004621575151 3.00000000000066
    vertex 138.999999999999 62.4999999999999 3.00000000000069
  endloop
endfacet
facet normal -0.707106781186816 -5.18517692902837e-014 -0.707106781186279
  outer loop
    vertex 139.0 52.5004621575151 3.00000000000066
    vertex 140.999999999999 62.4999999999997 0.999999999999954
    vertex 140.999999999999 52.5004621575149 0.999999999999883
  endloop
endfacet
facet normal 1.12798659302244e-014 -1.0 8.45989944764328e-014
  outer loop
    vertex 139.0 52.5004621575151 3.00000000000066
    vertex 140.999999999999 52.5004621575149 0.999999999999883
    vertex 141.0 52.5004621575152 2.99999999999988
  endloop
endfacet
facet normal 4.86135636050194e-015 -1.0 4.02702554315576e-014
  outer loop
    vertex 138.701902961144 52.5004621575152 3.29809703885705
    vertex 141.0 52.5004621575152 2.99999999999988
    vertex 141.0 52.5004621575152 3.29809703885618
  endloop
endfacet
facet normal 4.86135636050194e-015 -1.0 4.02702554315576e-014
  outer loop
    vertex 141.0 52.5004621575152 2.99999999999988
    vertex 138.701902961144 52.5004621575152 3.29809703885705
    vertex 139.0 52.5004621575151 3.00000000000066
  endloop
endfacet
facet normal -0.707106781187157 -3.17924990062099e-014 -0.707106781185939
  outer loop
    vertex 138.999999999999 62.4999999999999 3.00000000000069
    vertex 138.701902961144 52.5004621575152 3.29809703885705
    vertex 138.701902961144 62.4999999999999 3.29809703885708
  endloop
endfacet
facet normal -0.707106781187157 -3.17924990062099e-014 -0.707106781185939
  outer loop
    vertex 138.701902961144 52.5004621575152 3.29809703885705
    vertex 138.999999999999 62.4999999999999 3.00000000000069
    vertex 139.0 52.5004621575151 3.00000000000066
  endloop
endfacet
facet normal 0.707106781186808 4.28694373580844e-014 0.707106781186287
  outer loop
    vertex 136.25 33.3450591927952 1.75000000000162
    vertex 136.25 34.2702310787576 1.75000000000157
    vertex 135.46966991411 34.2702310787575 2.53033008589189
  endloop
endfacet
facet normal 3.07408412003024e-013 -0.644734008284716 0.764406997980214
  outer loop
    vertex 134.25 34.2702310787575 2.53033008589241
    vertex 136.25 33.3450591927952 1.75000000000162
    vertex 135.46966991411 34.2702310787575 2.53033008589189
  endloop
endfacet
facet normal 3.07408412003024e-013 -0.644734008284716 0.764406997980214
  outer loop
    vertex 136.25 33.3450591927952 1.75000000000162
    vertex 134.25 34.2702310787575 2.53033008589241
    vertex 134.249999999999 31.2702310787574 2.43927100740393e-012
  endloop
endfacet
facet normal 3.07408412003024e-013 -0.644734008284716 0.764406997980214
  outer loop
    vertex 136.25 33.3450591927952 1.75000000000162
    vertex 134.249999999999 31.2702310787574 2.43927100740393e-012
    vertex 136.249999999999 31.2702310787576 1.67506009063345e-012
  endloop
endfacet
facet normal 0.707106781186834 5.12101437896973e-014 0.707106781186261
  outer loop
    vertex 136.25 41.1954029647198 1.75000000000157
    vertex 135.46966991411 40.2702310787576 2.53033008589189
    vertex 136.25 40.2702310787575 1.75000000000157
  endloop
endfacet
facet normal 1.0 3.73177296514076e-014 -5.31984909063451e-013
  outer loop
    vertex 136.249999999999 40.2702310787575 0.600000000001586
    vertex 136.25 41.1954029647198 1.75000000000157
    vertex 136.25 40.2702310787575 1.75000000000157
  endloop
endfacet
facet normal 1.0 3.73177296514076e-014 -5.31984909063451e-013
  outer loop
    vertex 136.25 41.1954029647198 1.75000000000157
    vertex 136.249999999999 40.2702310787575 0.600000000001586
    vertex 136.249999999999 43.2702310787575 1.63558055987778e-012
  endloop
endfacet
facet normal 1.0 3.73177296514076e-014 -5.31984909063451e-013
  outer loop
    vertex 136.249999999999 43.2702310787575 1.63558055987778e-012
    vertex 136.249999999999 40.2702310787575 0.600000000001586
    vertex 136.249999999999 40.2702310787575 1.66942015766836e-012
  endloop
endfacet
facet normal 2.99941177978801e-013 0.64473400828472 0.764406997980212
  outer loop
    vertex 134.249999999999 43.2702310787575 2.39415154368316e-012
    vertex 136.25 41.1954029647198 1.75000000000157
    vertex 136.249999999999 43.2702310787575 1.63558055987778e-012
  endloop
endfacet
facet normal 2.99941177978801e-013 0.64473400828472 0.764406997980212
  outer loop
    vertex 136.25 41.1954029647198 1.75000000000157
    vertex 134.249999999999 43.2702310787575 2.39415154368316e-012
    vertex 134.25 40.2702310787575 2.53033008589237
  endloop
endfacet
facet normal 2.99941177978801e-013 0.64473400828472 0.764406997980212
  outer loop
    vertex 136.25 41.1954029647198 1.75000000000157
    vertex 134.25 40.2702310787575 2.53033008589237
    vertex 135.46966991411 40.2702310787576 2.53033008589189
  endloop
endfacet
facet normal 9.06056971300028e-015 -1.0 -8.55795939909928e-015
  outer loop
    vertex 136.25 34.2702310787576 1.75000000000157
    vertex 136.25 34.2702310787575 0.600000000001763
    vertex 137.999999999999 34.2702310787576 1.01518793371724e-012
  endloop
endfacet
facet normal 9.06056971300028e-015 -1.0 -8.55795939909928e-015
  outer loop
    vertex 136.249999999999 34.2702310787576 1.65814029173816e-012
    vertex 137.999999999999 34.2702310787576 1.01518793371724e-012
    vertex 136.25 34.2702310787575 0.600000000001763
  endloop
endfacet
facet normal 1.0 1.69930256086552e-014 -4.13233064520272e-013
  outer loop
    vertex 136.249999999999 31.2702310787576 1.67506009063345e-012
    vertex 136.25 34.2702310787576 1.75000000000157
    vertex 136.25 33.3450591927952 1.75000000000162
  endloop
endfacet
facet normal 1.0 1.69930256086552e-014 -4.13233064520272e-013
  outer loop
    vertex 136.25 34.2702310787576 1.75000000000157
    vertex 136.249999999999 31.2702310787576 1.67506009063345e-012
    vertex 136.25 34.2702310787575 0.600000000001763
  endloop
endfacet
facet normal 1.0 1.69930256086552e-014 -4.13233064520272e-013
  outer loop
    vertex 136.25 34.2702310787575 0.600000000001763
    vertex 136.249999999999 31.2702310787576 1.67506009063345e-012
    vertex 136.249999999999 34.2702310787576 1.65814029173816e-012
  endloop
endfacet
facet normal 4.09815027204573e-013 3.64245670663362e-015 1.0
  outer loop
    vertex 134.25 40.2702310787575 2.53033008589237
    vertex 135.46966991411 34.2702310787575 2.53033008589189
    vertex 135.46966991411 40.2702310787576 2.53033008589189
  endloop
endfacet
facet normal 4.09815027204573e-013 3.64245670663362e-015 1.0
  outer loop
    vertex 135.46966991411 34.2702310787575 2.53033008589189
    vertex 134.25 40.2702310787575 2.53033008589237
    vertex 134.25 34.2702310787575 2.53033008589241
  endloop
endfacet
facet normal -1.0 -5.26393743408945e-014 3.74343712816922e-013
  outer loop
    vertex 134.25 40.2702310787575 2.53033008589237
    vertex 134.25 34.2702310787574 0.600000000002417
    vertex 134.25 34.2702310787575 2.53033008589241
  endloop
endfacet
facet normal -1.0 -5.26393743408945e-014 3.74343712816922e-013
  outer loop
    vertex 134.25 34.2702310787574 0.600000000002417
    vertex 134.25 40.2702310787575 2.53033008589237
    vertex 134.249999999999 40.2702310787574 0.600000000002449
  endloop
endfacet
facet normal -1.0 -5.26393743408945e-014 3.74343712816922e-013
  outer loop
    vertex 134.25 34.2702310787574 0.600000000002417
    vertex 134.249999999999 40.2702310787574 0.600000000002449
    vertex 134.249999999999 40.2702310787575 2.44491094036903e-012
  endloop
endfacet
facet normal -1.0 -5.26393743408945e-014 3.74343712816922e-013
  outer loop
    vertex 134.25 34.2702310787574 0.600000000002417
    vertex 134.249999999999 40.2702310787575 2.44491094036903e-012
    vertex 134.249999999999 34.2702310787574 2.42517117499119e-012
  endloop
endfacet
facet normal -1.0 -1.02005605813751e-014 4.31909018134015e-013
  outer loop
    vertex 134.249999999999 43.2702310787575 2.39415154368316e-012
    vertex 134.249999999999 40.2702310787574 0.600000000002449
    vertex 134.25 40.2702310787575 2.53033008589237
  endloop
endfacet
facet normal -1.0 -1.02005605813751e-014 4.31909018134015e-013
  outer loop
    vertex 134.249999999999 40.2702310787574 0.600000000002449
    vertex 134.249999999999 43.2702310787575 2.39415154368316e-012
    vertex 134.249999999999 40.2702310787575 2.44491094036903e-012
  endloop
endfacet
facet normal -1.0 -3.99942763851441e-014 3.16778407499832e-013
  outer loop
    vertex 134.25 34.2702310787574 0.600000000002417
    vertex 134.249999999999 31.2702310787574 2.43927100740393e-012
    vertex 134.25 34.2702310787575 2.53033008589241
  endloop
endfacet
facet normal -1.0 -3.99942763851441e-014 3.16778407499832e-013
  outer loop
    vertex 134.249999999999 31.2702310787574 2.43927100740393e-012
    vertex 134.25 34.2702310787574 0.600000000002417
    vertex 134.249999999999 34.2702310787574 2.42517117499119e-012
  endloop
endfacet
facet normal 0.707106781186832 2.75003043436787e-014 0.707106781186263
  outer loop
    vertex 136.25 34.2702310787576 1.75000000000157
    vertex 135.46966991411 40.2702310787576 2.53033008589189
    vertex 135.46966991411 34.2702310787575 2.53033008589189
  endloop
endfacet
facet normal 0.707106781186832 2.75003043436787e-014 0.707106781186263
  outer loop
    vertex 135.46966991411 40.2702310787576 2.53033008589189
    vertex 136.25 34.2702310787576 1.75000000000157
    vertex 136.25 40.2702310787575 1.75000000000157
  endloop
endfacet
facet normal 0.707106781186832 2.75003043436787e-014 0.707106781186263
  outer loop
    vertex 136.25 40.2702310787575 1.75000000000157
    vertex 136.25 34.2702310787576 1.75000000000157
    vertex 137.999999999999 34.2702310787576 1.01518793371724e-012
  endloop
endfacet
facet normal 0.707106781186832 2.75003043436787e-014 0.707106781186263
  outer loop
    vertex 136.25 40.2702310787575 1.75000000000157
    vertex 137.999999999999 34.2702310787576 1.01518793371724e-012
    vertex 137.999999999999 40.2702310787575 1.03492769909508e-012
  endloop
endfacet
facet normal -3.69911514240393e-013 3.64245670659936e-015 -1.0
  outer loop
    vertex 137.999999999999 34.2702310787576 1.01518793371724e-012
    vertex 136.249999999999 40.2702310787575 1.66942015766836e-012
    vertex 137.999999999999 40.2702310787575 1.03492769909508e-012
  endloop
endfacet
facet normal -3.69911514240393e-013 3.64245670659936e-015 -1.0
  outer loop
    vertex 136.249999999999 40.2702310787575 1.66942015766836e-012
    vertex 137.999999999999 34.2702310787576 1.01518793371724e-012
    vertex 136.249999999999 34.2702310787576 1.65814029173816e-012
  endloop
endfacet
facet normal 3.86159160203934e-013 1.68023002918537e-014 1.0
  outer loop
    vertex 134.249999999999 43.2702310787575 2.39415154368316e-012
    vertex 136.249999999999 40.2702310787575 1.66942015766836e-012
    vertex 136.249999999999 43.2702310787575 1.63558055987778e-012
  endloop
endfacet
facet normal 3.86159160203934e-013 1.68023002918537e-014 1.0
  outer loop
    vertex 136.249999999999 40.2702310787575 1.66942015766836e-012
    vertex 134.249999999999 43.2702310787575 2.39415154368316e-012
    vertex 134.249999999999 40.2702310787575 2.44491094036903e-012
  endloop
endfacet
facet normal 3.76289277515015e-013 5.52243436167325e-015 1.0
  outer loop
    vertex 134.249999999999 34.2702310787574 2.42517117499119e-012
    vertex 136.249999999999 31.2702310787576 1.67506009063345e-012
    vertex 136.249999999999 34.2702310787576 1.65814029173816e-012
  endloop
endfacet
facet normal 3.76289277515015e-013 5.52243436167325e-015 1.0
  outer loop
    vertex 136.249999999999 31.2702310787576 1.67506009063345e-012
    vertex 134.249999999999 34.2702310787574 2.42517117499119e-012
    vertex 134.249999999999 31.2702310787574 2.43927100740393e-012
  endloop
endfacet
facet normal -3.48431204105839e-014 1.0 8.5579593991113e-015
  outer loop
    vertex 137.999999999999 40.2702310787575 1.03492769909508e-012
    vertex 136.249999999999 40.2702310787575 0.600000000001586
    vertex 136.25 40.2702310787575 1.75000000000157
  endloop
endfacet
facet normal -3.48431204105839e-014 1.0 8.5579593991113e-015
  outer loop
    vertex 136.249999999999 40.2702310787575 0.600000000001586
    vertex 137.999999999999 40.2702310787575 1.03492769909508e-012
    vertex 136.249999999999 40.2702310787575 1.66942015766836e-012
  endloop
endfacet
facet normal -1.0 -5.35793631684086e-014 4.73754369068047e-013
  outer loop
    vertex 168.0 43.5000000000005 3.49999999998972
    vertex 168.000000000001 31.5000000000005 2.99999999998974
    vertex 168.000000000001 31.5000000000005 3.49999999998974
  endloop
endfacet
facet normal -1.0 -5.35793631684086e-014 4.73754369068047e-013
  outer loop
    vertex 168.000000000001 31.5000000000005 2.99999999998974
    vertex 168.0 43.5000000000005 3.49999999998972
    vertex 168.0 43.5000000000005 2.99999999998972
  endloop
endfacet
facet normal -3.76341360105769e-013 2.07810341348855e-015 -1.0
  outer loop
    vertex 169.999999999998 74.2500000000006 -1.09358300193207e-011
    vertex 167.999999999998 69.2500000000005 -1.01800790019979e-011
    vertex 140.999999999998 74.2499999999997 -2.25597318603832e-014
  endloop
endfacet
facet normal -3.76341360105769e-013 2.07810341348855e-015 -1.0
  outer loop
    vertex 167.999999999998 69.2500000000005 -1.01800790019979e-011
    vertex 169.999999999998 74.2500000000006 -1.09358300193207e-011
    vertex 170.0 0.750000000000653 -1.11191278406864e-011
  endloop
endfacet
facet normal -3.76341360105769e-013 2.07810341348855e-015 -1.0
  outer loop
    vertex 167.999999999998 69.2500000000005 -1.01800790019979e-011
    vertex 170.0 0.750000000000653 -1.11191278406864e-011
    vertex 168.0 5.7500000000006 -1.03013375607475e-011
  endloop
endfacet
facet normal -3.76341360105769e-013 2.07810341348855e-015 -1.0
  outer loop
    vertex 168.0 5.7500000000006 -1.03013375607475e-011
    vertex 170.0 0.750000000000653 -1.11191278406864e-011
    vertex 165.499999999999 5.75000000000032 -9.42150801819253e-012
  endloop
endfacet
facet normal -3.76341360105769e-013 2.07810341348855e-015 -1.0
  outer loop
    vertex 140.999999999998 74.2499999999997 -2.25597318603832e-014
    vertex 165.499999999998 69.2500000000005 -9.24103016330946e-012
    vertex 140.999999999998 62.4999999999999 -7.61390950287932e-014
  endloop
endfacet
facet normal -3.76341360105769e-013 2.07810341348855e-015 -1.0
  outer loop
    vertex 165.499999999998 69.2500000000005 -9.24103016330946e-012
    vertex 140.999999999998 74.2499999999997 -2.25597318603832e-014
    vertex 167.999999999998 69.2500000000005 -1.01800790019979e-011
  endloop
endfacet
facet normal -3.76341360105769e-013 2.07810341348855e-015 -1.0
  outer loop
    vertex 140.999999999998 62.4999999999999 -7.61390950287932e-014
    vertex 165.499999999998 69.2500000000005 -9.24103016330946e-012
    vertex 165.499999999999 5.75000000000032 -9.42150801819253e-012
  endloop
endfacet
facet normal -3.76341360105769e-013 2.07810341348855e-015 -1.0
  outer loop
    vertex 140.999999999998 62.4999999999999 -7.61390950287932e-014
    vertex 165.499999999999 5.75000000000032 -9.42150801819253e-012
    vertex 140.999999999999 52.0404621575152 -9.58788604066285e-014
  endloop
endfacet
facet normal -3.76341360105769e-013 2.07810341348855e-015 -1.0
  outer loop
    vertex 140.999999999999 52.0404621575152 -9.58788604066285e-014
    vertex 165.499999999999 5.75000000000032 -9.42150801819253e-012
    vertex 140.999999999999 22.4999999999999 -1.12798659301916e-013
  endloop
endfacet
facet normal -3.76341360105769e-013 2.07810341348855e-015 -1.0
  outer loop
    vertex 140.999999999999 22.4999999999999 -1.12798659301916e-013
    vertex 165.499999999999 5.75000000000032 -9.42150801819253e-012
    vertex 141.0 12.5 -1.72017955435422e-013
  endloop
endfacet
facet normal -3.76341360105769e-013 2.07810341348855e-015 -1.0
  outer loop
    vertex 141.0 12.5 -1.72017955435422e-013
    vertex 165.499999999999 5.75000000000032 -9.42150801819253e-012
    vertex 141.0 0.749999999999807 -2.00217620260901e-013
  endloop
endfacet
facet normal -3.76341360105769e-013 2.07810341348855e-015 -1.0
  outer loop
    vertex 141.0 0.749999999999807 -2.00217620260901e-013
    vertex 165.499999999999 5.75000000000032 -9.42150801819253e-012
    vertex 170.0 0.750000000000653 -1.11191278406864e-011
  endloop
endfacet
facet normal 3.81047970954315e-013 3.81870461180224e-015 1.0
  outer loop
    vertex 168.000000000001 31.5000000000005 3.49999999998974
    vertex 170.0 43.5000000000005 3.49999999998894
    vertex 168.0 43.5000000000005 3.49999999998972
  endloop
endfacet
facet normal 3.81047970954315e-013 3.81870461180224e-015 1.0
  outer loop
    vertex 170.0 43.5000000000005 3.49999999998894
    vertex 168.000000000001 31.5000000000005 3.49999999998974
    vertex 170.000000000001 31.5000000000006 3.49999999998899
  endloop
endfacet
facet normal -3.75948977124441e-013 1.93872695673303e-015 -1.0
  outer loop
    vertex 141.0 22.4999999999999 3.29809703885615
    vertex 138.701902961145 12.5 3.29809703885699
    vertex 138.701902961145 22.5 3.29809703885702
  endloop
endfacet
facet normal -3.75948977124441e-013 1.93872695673303e-015 -1.0
  outer loop
    vertex 138.701902961145 12.5 3.29809703885699
    vertex 141.0 22.4999999999999 3.29809703885615
    vertex 141.000000000001 12.5 3.29809703885613
  endloop
endfacet
facet normal -1.40998324127163e-014 1.0 5.63993296509685e-014
  outer loop
    vertex 136.249999999999 40.2702310787575 1.66942015766836e-012
    vertex 134.249999999999 40.2702310787574 0.600000000002449
    vertex 136.249999999999 40.2702310787575 0.600000000001586
  endloop
endfacet
facet normal -1.40998324127163e-014 1.0 5.63993296509685e-014
  outer loop
    vertex 134.249999999999 40.2702310787574 0.600000000002449
    vertex 136.249999999999 40.2702310787575 1.66942015766836e-012
    vertex 134.249999999999 40.2702310787575 2.44491094036903e-012
  endloop
endfacet
facet normal 3.8422043324718e-013 -3.05496368940163e-015 1.0
  outer loop
    vertex 134.249999999999 40.2702310787575 2.44491094036903e-012
    vertex 136.249999999999 34.2702310787576 1.65814029173816e-012
    vertex 136.249999999999 40.2702310787575 1.66942015766836e-012
  endloop
endfacet
facet normal 3.8422043324718e-013 -3.05496368940163e-015 1.0
  outer loop
    vertex 136.249999999999 34.2702310787576 1.65814029173816e-012
    vertex 134.249999999999 40.2702310787575 2.44491094036903e-012
    vertex 134.249999999999 34.2702310787574 2.42517117499119e-012
  endloop
endfacet
endsolid case-k
