<?xml version="1.0" standalone="no"?>
<!DOCTYPE svg PUBLIC "-//W3C//DTD SVG 1.1//EN" "http://www.w3.org/Graphics/SVG/1.1/DTD/svg11.dtd">
<svg width="198.0mm" height="147.0mm"
 viewBox="0 0 198.0 147.0"
 xmlns="http://www.w3.org/2000/svg" version="1.1"
 xmlns:xlink="http://www.w3.org/1999/xlink">
<desc>Output from Flights of Ideas SVG Sketchup Plugin</desc>

<g id="text_annotations" font-size="7" stroke="rgb(255,0,0)" stroke-width=".1">
</g>
  <path id="face0-cut"
 style="fill:none;stroke:rgb(0,0,255);stroke-width:.1;stroke-miterlimit:4;stroke-dasharray:none;stroke-linejoin:round;stroke-linecap:round"
        d="M 25.0,122.0 L 173.0,122.0 L 173.0,25.0 L 25.0,25.0 L 25.0,122.0 M 77.0,58.5 L 77.7850393436442,58.5205569786814 L 78.5679269490148,58.5821715694759 L 79.3465169756035,58.6846748910729 L 80.1186753622664,58.8277859889929 L 80.8822856765378,59.011112605664 L 81.6352549156242,59.2341522555727 L 82.3755192431795,59.496293602542 L 83.101049646137,59.796818135361 L 83.8098574960932,60.1349021371745 L 84.5,60.5096189432334 L 85.1695855252254,60.9199414808186 L 85.8167787843871,61.3647450843758 L 86.4398058657476,61.8428105781454 L 87.0369590953829,62.3528276178391 L 87.6066017177982,62.8933982822018 L 88.1471723821609,63.4630409046171 L 88.6571894218546,64.0601941342524 L 89.1352549156242,64.6832212156129 L 89.5800585191814,65.3304144747746 L 89.9903810567666,66.0 L 90.3650978628255,66.6901425039068 L 90.703181864639,67.398950353863 L 91.003706397458,68.1244807568205 L 91.2658477444273,68.8647450843758 L 91.488887394336,69.6177143234622 L 91.6722140110071,70.3813246377336 L 91.8153251089271,71.1534830243965 L 91.9178284305241,71.9320730509852 L 91.9794430213186,72.7149606563559 L 92.0,73.5 L 91.9794430213186,74.2850393436442 L 91.9178284305241,75.0679269490148 L 91.8153251089271,75.8465169756035 L 91.6722140110071,76.6186753622664 L 91.488887394336,77.3822856765378 L 91.2658477444273,78.1352549156242 L 91.003706397458,78.8755192431795 L 90.703181864639,79.601049646137 L 90.3650978628255,80.3098574960932 L 89.9903810567666,81.0 L 89.5800585191814,81.6695855252254 L 89.1352549156242,82.3167787843871 L 88.6571894218546,82.9398058657476 L 88.1471723821609,83.5369590953829 L 87.6066017177982,84.1066017177982 L 87.0369590953829,84.6471723821609 L 86.4398058657476,85.1571894218546 L 85.8167787843871,85.6352549156242 L 85.1695855252254,86.0800585191813 L 84.5,86.4903810567666 L 83.8098574960932,86.8650978628255 L 83.101049646137,87.203181864639 L 82.3755192431795,87.503706397458 L 81.6352549156243,87.7658477444273 L 80.8822856765378,87.988887394336 L 80.1186753622664,88.1722140110071 L 79.3465169756035,88.3153251089271 L 78.5679269490148,88.4178284305241 L 77.7850393436442,88.4794430213186 L 77.0000000000001,88.5 L 76.2149606563559,88.4794430213186 L 75.4320730509853,88.4178284305241 L 74.6534830243966,88.3153251089271 L 73.8813246377337,88.1722140110071 L 73.1177143234623,87.988887394336 L 72.3647450843759,87.7658477444273 L 71.6244807568206,87.503706397458 L 70.8989503538631,87.203181864639 L 70.1901425039069,86.8650978628255 L 69.5000000000001,86.4903810567666 L 68.8304144747747,86.0800585191814 L 68.183221215613,85.6352549156243 L 67.5601941342525,85.1571894218546 L 66.9630409046172,84.647172382161 L 66.3933982822019,84.1066017177983 L 65.8528276178392,83.5369590953829 L 65.3428105781455,82.9398058657476 L 64.8647450843759,82.3167787843872 L 64.4199414808187,81.6695855252255 L 64.0096189432335,81.0000000000001 L 63.6349021371745,80.3098574960933 L 63.296818135361,79.6010496461371 L 62.996293602542,78.8755192431796 L 62.7341522555727,78.1352549156243 L 62.511112605664,77.3822856765378 L 62.3277859889929,76.6186753622664 L 62.184674891073,75.8465169756035 L 62.0821715694759,75.0679269490148 L 62.0205569786814,74.2850393436442 L 62.0,73.5 L 62.0205569786814,72.7149606563559 L 62.0821715694759,71.9320730509852 L 62.184674891073,71.1534830243965 L 62.3277859889929,70.3813246377336 L 62.511112605664,69.6177143234622 L 62.7341522555727,68.8647450843758 L 62.996293602542,68.1244807568205 L 63.296818135361,67.398950353863 L 63.6349021371745,66.6901425039068 L 64.0096189432334,66.0 L 64.4199414808187,65.3304144747746 L 64.8647450843758,64.6832212156129 L 65.3428105781455,64.0601941342524 L 65.8528276178391,63.4630409046171 L 66.3933982822018,62.8933982822018 L 66.9630409046172,62.352827617839 L 67.5601941342525,61.8428105781454 L 68.183221215613,61.3647450843758 L 68.8304144747747,60.9199414808186 L 69.5000000000001,60.5096189432334 L 70.1901425039069,60.1349021371744 L 70.8989503538631,59.796818135361 L 71.6244807568206,59.4962936025419 L 72.3647450843759,59.2341522555727 L 73.1177143234623,59.011112605664 L 73.8813246377337,58.8277859889929 L 74.6534830243967,58.6846748910729 L 75.4320730509853,58.5821715694759 L 76.214960656356,58.5205569786814 L 77.0,58.5 M 133.0,109.25 L 109.0,109.25 L 109.0,37.75 L 133.0,37.75 L 133.0,109.25 M 160.045284632676,83.4452189536827 L 160.0,83.4487829315673 L 160.0,84.6000000000001 L 158.0,84.5999999999999 L 158.0,83.4487829315673 L 157.954715367323,83.4452189536828 L 157.435655349598,83.3768834059514 L 156.920883091822,83.2814760073381 L 156.411809548975,83.1592582628907 L 155.90983005625,83.0105651629515 L 155.416320504547,82.835804264972 L 154.932633569242,82.6354545764259 L 154.460095002605,82.4100652418837 L 154.0,82.1602540378444 L 153.55360964985,81.8867056794542 L 153.122147477075,81.5901699437494 L 152.706796089502,81.2714596145697 L 152.308693936411,80.931448254774 L 151.928932188135,80.5710678118655 L 151.568551745226,80.1913060635886 L 151.22854038543,79.7932039104983 L 150.90983005625,79.3778525229247 L 150.613294320546,78.9463903501502 L 150.339745962156,78.5 L 150.089934758116,78.0399049973954 L 149.864545423574,77.567366430758 L 149.664195735028,77.083679495453 L 149.489434837048,76.5901699437494 L 149.340741737109,76.0881904510251 L 149.218523992662,75.5791169081776 L 149.123116594049,75.0643446504022 L 149.054781046317,74.5452846326765 L 149.013704652454,74.0233595624294 L 149.0,73.4999999999999 L 149.013704652454,72.9766404375705 L 149.054781046317,72.4547153673234 L 149.123116594049,71.9356553495976 L 149.218523992662,71.4208830918223 L 149.340741737109,70.9118095489747 L 149.489434837049,70.4098300562505 L 149.664195735028,69.9163205045469 L 149.864545423574,69.4326335692419 L 150.089934758116,68.9600950026044 L 150.339745962156,68.4999999999999 L 150.613294320546,68.0536096498496 L 150.909830056251,67.6221474770751 L 151.22854038543,67.2067960895015 L 151.568551745226,66.8086939364114 L 151.928932188135,66.4289321881345 L 152.308693936411,66.0685517452259 L 152.706796089502,65.7285403854303 L 153.122147477075,65.4098300562504 L 153.55360964985,65.1132943205457 L 154.0,64.8397459621555 L 154.460095002605,64.5899347581162 L 154.932633569242,64.3645454235739 L 155.416320504547,64.164195735028 L 155.909830056251,63.9894348370485 L 156.411809548975,63.8407417371093 L 156.920883091823,63.718523992662 L 157.435655349598,63.6231165940486 L 157.954715367324,63.5547810463173 L 158.476640437571,63.5137046524542 L 159.0,63.4999999999999 L 159.52335956243,63.5137046524542 L 160.045284632677,63.5547810463173 L 160.564344650402,63.6231165940486 L 161.079116908178,63.718523992662 L 161.588190451025,63.8407417371093 L 162.09016994375,63.9894348370485 L 162.583679495453,64.164195735028 L 163.067366430758,64.364545423574 L 163.539904997396,64.5899347581164 L 164.0,64.8397459621556 L 164.44639035015,65.1132943205458 L 164.877852522925,65.4098300562506 L 165.293203910498,65.7285403854303 L 165.691306063589,66.068551745226 L 166.071067811866,66.4289321881346 L 166.431448254774,66.8086939364115 L 166.77145961457,67.2067960895017 L 167.09016994375,67.6221474770753 L 167.386705679454,68.0536096498498 L 167.660254037844,68.5000000000001 L 167.910065241884,68.9600950026046 L 168.135454576426,69.432633569242 L 168.335804264972,69.916320504547 L 168.510565162952,70.4098300562505 L 168.659258262891,70.9118095489749 L 168.781476007338,71.4208830918225 L 168.876883405951,71.9356553495977 L 168.945218953683,72.4547153673236 L 168.986295347546,72.9766404375706 L 169.0,73.5000000000001 L 168.986295347546,74.0233595624296 L 168.945218953683,74.5452846326766 L 168.876883405951,75.0643446504024 L 168.781476007338,75.5791169081776 L 168.659258262891,76.0881904510254 L 168.510565162952,76.5901699437495 L 168.335804264972,77.0836794954531 L 168.135454576426,77.5673664307581 L 167.910065241884,78.0399049973955 L 167.660254037844,78.5 L 167.386705679454,78.9463903501503 L 167.090169943749,79.3778525229247 L 166.77145961457,79.7932039104985 L 166.431448254774,80.1913060635886 L 166.071067811865,80.5710678118655 L 165.691306063589,80.931448254774 L 165.293203910498,81.2714596145697 L 164.877852522925,81.5901699437495 L 164.44639035015,81.8867056794543 L 164.0,82.1602540378445 L 163.539904997395,82.4100652418837 L 163.067366430758,82.635454576426 L 162.583679495453,82.835804264972 L 162.090169943749,83.0105651629515 L 161.588190451025,83.1592582628907 L 161.079116908178,83.2814760073381 L 160.564344650402,83.3768834059514 L 160.045284632676,83.4452189536827 "
  />
  <path id="face0-interior"
 style="fill:none;stroke:rgb(255,0,0);stroke-width:.1;stroke-miterlimit:4;stroke-dasharray:none;stroke-linejoin:round;stroke-linecap:round"
        d="M 25.0,122.0 M 173.0,122.0 M 173.0,25.0 M 25.0,25.0 M 77.0,58.5 M 77.7850393436442,58.5205569786814 M 78.5679269490148,58.5821715694759 M 79.3465169756035,58.6846748910729 M 80.1186753622664,58.8277859889929 M 80.8822856765378,59.011112605664 M 81.6352549156242,59.2341522555727 M 82.3755192431795,59.496293602542 M 83.101049646137,59.796818135361 M 83.8098574960932,60.1349021371745 M 84.5,60.5096189432334 M 85.1695855252254,60.9199414808186 M 85.8167787843871,61.3647450843758 M 86.4398058657476,61.8428105781454 M 87.0369590953829,62.3528276178391 M 87.6066017177982,62.8933982822018 M 88.1471723821609,63.4630409046171 M 88.6571894218546,64.0601941342524 M 89.1352549156242,64.6832212156129 M 89.5800585191814,65.3304144747746 M 89.9903810567666,66.0 M 90.3650978628255,66.6901425039068 M 90.703181864639,67.398950353863 M 91.003706397458,68.1244807568205 M 91.2658477444273,68.8647450843758 M 91.488887394336,69.6177143234622 M 91.6722140110071,70.3813246377336 M 91.8153251089271,71.1534830243965 M 91.9178284305241,71.9320730509852 M 91.9794430213186,72.7149606563559 M 92.0,73.5 M 91.9794430213186,74.2850393436442 M 91.9178284305241,75.0679269490148 M 91.8153251089271,75.8465169756035 M 91.6722140110071,76.6186753622664 M 91.488887394336,77.3822856765378 M 91.2658477444273,78.1352549156242 M 91.003706397458,78.8755192431795 M 90.703181864639,79.601049646137 M 90.3650978628255,80.3098574960932 M 89.9903810567666,81.0 M 89.5800585191814,81.6695855252254 M 89.1352549156242,82.3167787843871 M 88.6571894218546,82.9398058657476 M 88.1471723821609,83.5369590953829 M 87.6066017177982,84.1066017177982 M 87.0369590953829,84.6471723821609 M 86.4398058657476,85.1571894218546 M 85.8167787843871,85.6352549156242 M 85.1695855252254,86.0800585191813 M 84.5,86.4903810567666 M 83.8098574960932,86.8650978628255 M 83.101049646137,87.203181864639 M 82.3755192431795,87.503706397458 M 81.6352549156243,87.7658477444273 M 80.8822856765378,87.988887394336 M 80.1186753622664,88.1722140110071 M 79.3465169756035,88.3153251089271 M 78.5679269490148,88.4178284305241 M 77.7850393436442,88.4794430213186 M 77.0000000000001,88.5 M 76.2149606563559,88.4794430213186 M 75.4320730509853,88.4178284305241 M 74.6534830243966,88.3153251089271 M 73.8813246377337,88.1722140110071 M 73.1177143234623,87.988887394336 M 72.3647450843759,87.7658477444273 M 71.6244807568206,87.503706397458 M 70.8989503538631,87.203181864639 M 70.1901425039069,86.8650978628255 M 69.5000000000001,86.4903810567666 M 68.8304144747747,86.0800585191814 M 68.183221215613,85.6352549156243 M 67.5601941342525,85.1571894218546 M 66.9630409046172,84.647172382161 M 66.3933982822019,84.1066017177983 M 65.8528276178392,83.5369590953829 M 65.3428105781455,82.9398058657476 M 64.8647450843759,82.3167787843872 M 64.4199414808187,81.6695855252255 M 64.0096189432335,81.0000000000001 M 63.6349021371745,80.3098574960933 M 63.296818135361,79.6010496461371 M 62.996293602542,78.8755192431796 M 62.7341522555727,78.1352549156243 M 62.511112605664,77.3822856765378 M 62.3277859889929,76.6186753622664 M 62.184674891073,75.8465169756035 M 62.0821715694759,75.0679269490148 M 62.0205569786814,74.2850393436442 M 62.0,73.5 M 62.0205569786814,72.7149606563559 M 62.0821715694759,71.9320730509852 M 62.184674891073,71.1534830243965 M 62.3277859889929,70.3813246377336 M 62.511112605664,69.6177143234622 M 62.7341522555727,68.8647450843758 M 62.996293602542,68.1244807568205 M 63.296818135361,67.398950353863 M 63.6349021371745,66.6901425039068 M 64.0096189432334,66.0 M 64.4199414808187,65.3304144747746 M 64.8647450843758,64.6832212156129 M 65.3428105781455,64.0601941342524 M 65.8528276178391,63.4630409046171 M 66.3933982822018,62.8933982822018 M 66.9630409046172,62.352827617839 M 67.5601941342525,61.8428105781454 M 68.183221215613,61.3647450843758 M 68.8304144747747,60.9199414808186 M 69.5000000000001,60.5096189432334 M 70.1901425039069,60.1349021371744 M 70.8989503538631,59.796818135361 M 71.6244807568206,59.4962936025419 M 72.3647450843759,59.2341522555727 M 73.1177143234623,59.011112605664 M 73.8813246377337,58.8277859889929 M 74.6534830243967,58.6846748910729 M 75.4320730509853,58.5821715694759 M 76.214960656356,58.5205569786814 M 133.0,109.25 M 109.0,109.25 M 109.0,37.75 M 133.0,37.75 M 160.045284632676,83.4452189536827 M 160.0,83.4487829315673 M 160.0,84.6000000000001 M 158.0,84.5999999999999 M 158.0,83.4487829315673 M 157.954715367323,83.4452189536828 M 157.435655349598,83.3768834059514 M 156.920883091822,83.2814760073381 M 156.411809548975,83.1592582628907 M 155.90983005625,83.0105651629515 M 155.416320504547,82.835804264972 M 154.932633569242,82.6354545764259 M 154.460095002605,82.4100652418837 M 154.0,82.1602540378444 M 153.55360964985,81.8867056794542 M 153.122147477075,81.5901699437494 M 152.706796089502,81.2714596145697 M 152.308693936411,80.931448254774 M 151.928932188135,80.5710678118655 M 151.568551745226,80.1913060635886 M 151.22854038543,79.7932039104983 M 150.90983005625,79.3778525229247 M 150.613294320546,78.9463903501502 M 150.339745962156,78.5 M 150.089934758116,78.0399049973954 M 149.864545423574,77.567366430758 M 149.664195735028,77.083679495453 M 149.489434837048,76.5901699437494 M 149.340741737109,76.0881904510251 M 149.218523992662,75.5791169081776 M 149.123116594049,75.0643446504022 M 149.054781046317,74.5452846326765 M 149.013704652454,74.0233595624294 M 149.0,73.4999999999999 M 149.013704652454,72.9766404375705 M 149.054781046317,72.4547153673234 M 149.123116594049,71.9356553495976 M 149.218523992662,71.4208830918223 M 149.340741737109,70.9118095489747 M 149.489434837049,70.4098300562505 M 149.664195735028,69.9163205045469 M 149.864545423574,69.4326335692419 M 150.089934758116,68.9600950026044 M 150.339745962156,68.4999999999999 M 150.613294320546,68.0536096498496 M 150.909830056251,67.6221474770751 M 151.22854038543,67.2067960895015 M 151.568551745226,66.8086939364114 M 151.928932188135,66.4289321881345 M 152.308693936411,66.0685517452259 M 152.706796089502,65.7285403854303 M 153.122147477075,65.4098300562504 M 153.55360964985,65.1132943205457 M 154.0,64.8397459621555 M 154.460095002605,64.5899347581162 M 154.932633569242,64.3645454235739 M 155.416320504547,64.164195735028 M 155.909830056251,63.9894348370485 M 156.411809548975,63.8407417371093 M 156.920883091823,63.718523992662 M 157.435655349598,63.6231165940486 M 157.954715367324,63.5547810463173 M 158.476640437571,63.5137046524542 M 159.0,63.4999999999999 M 159.52335956243,63.5137046524542 M 160.045284632677,63.5547810463173 M 160.564344650402,63.6231165940486 M 161.079116908178,63.718523992662 M 161.588190451025,63.8407417371093 M 162.09016994375,63.9894348370485 M 162.583679495453,64.164195735028 M 163.067366430758,64.364545423574 M 163.539904997396,64.5899347581164 M 164.0,64.8397459621556 M 164.44639035015,65.1132943205458 M 164.877852522925,65.4098300562506 M 165.293203910498,65.7285403854303 M 165.691306063589,66.068551745226 M 166.071067811866,66.4289321881346 M 166.431448254774,66.8086939364115 M 166.77145961457,67.2067960895017 M 167.09016994375,67.6221474770753 M 167.386705679454,68.0536096498498 M 167.660254037844,68.5000000000001 M 167.910065241884,68.9600950026046 M 168.135454576426,69.432633569242 M 168.335804264972,69.916320504547 M 168.510565162952,70.4098300562505 M 168.659258262891,70.9118095489749 M 168.781476007338,71.4208830918225 M 168.876883405951,71.9356553495977 M 168.945218953683,72.4547153673236 M 168.986295347546,72.9766404375706 M 169.0,73.5000000000001 M 168.986295347546,74.0233595624296 M 168.945218953683,74.5452846326766 M 168.876883405951,75.0643446504024 M 168.781476007338,75.5791169081776 M 168.659258262891,76.0881904510254 M 168.510565162952,76.5901699437495 M 168.335804264972,77.0836794954531 M 168.135454576426,77.5673664307581 M 167.910065241884,78.0399049973955 M 167.660254037844,78.5 M 167.386705679454,78.9463903501503 M 167.090169943749,79.3778525229247 M 166.77145961457,79.7932039104985 M 166.431448254774,80.1913060635886 M 166.071067811865,80.5710678118655 M 165.691306063589,80.931448254774 M 165.293203910498,81.2714596145697 M 164.877852522925,81.5901699437495 M 164.44639035015,81.8867056794543 M 164.0,82.1602540378445 M 163.539904997395,82.4100652418837 M 163.067366430758,82.635454576426 M 162.583679495453,82.835804264972 M 162.090169943749,83.0105651629515 M 161.588190451025,83.1592582628907 M 161.079116908178,83.2814760073381 M 160.564344650402,83.3768834059514 "
  />
  <path id="face0-interior"
 style="fill:none;stroke:rgb(0,255,0);stroke-width:.1;stroke-miterlimit:4;stroke-dasharray:none;stroke-linejoin:round;stroke-linecap:round"
        d="M 25.0,122.0 M 173.0,122.0 M 173.0,25.0 M 25.0,25.0 M 77.0,58.5 M 77.7850393436442,58.5205569786814 M 78.5679269490148,58.5821715694759 M 79.3465169756035,58.6846748910729 M 80.1186753622664,58.8277859889929 M 80.8822856765378,59.011112605664 M 81.6352549156242,59.2341522555727 M 82.3755192431795,59.496293602542 M 83.101049646137,59.796818135361 M 83.8098574960932,60.1349021371745 M 84.5,60.5096189432334 M 85.1695855252254,60.9199414808186 M 85.8167787843871,61.3647450843758 M 86.4398058657476,61.8428105781454 M 87.0369590953829,62.3528276178391 M 87.6066017177982,62.8933982822018 M 88.1471723821609,63.4630409046171 M 88.6571894218546,64.0601941342524 M 89.1352549156242,64.6832212156129 M 89.5800585191814,65.3304144747746 M 89.9903810567666,66.0 M 90.3650978628255,66.6901425039068 M 90.703181864639,67.398950353863 M 91.003706397458,68.1244807568205 M 91.2658477444273,68.8647450843758 M 91.488887394336,69.6177143234622 M 91.6722140110071,70.3813246377336 M 91.8153251089271,71.1534830243965 M 91.9178284305241,71.9320730509852 M 91.9794430213186,72.7149606563559 M 92.0,73.5 M 91.9794430213186,74.2850393436442 M 91.9178284305241,75.0679269490148 M 91.8153251089271,75.8465169756035 M 91.6722140110071,76.6186753622664 M 91.488887394336,77.3822856765378 M 91.2658477444273,78.1352549156242 M 91.003706397458,78.8755192431795 M 90.703181864639,79.601049646137 M 90.3650978628255,80.3098574960932 M 89.9903810567666,81.0 M 89.5800585191814,81.6695855252254 M 89.1352549156242,82.3167787843871 M 88.6571894218546,82.9398058657476 M 88.1471723821609,83.5369590953829 M 87.6066017177982,84.1066017177982 M 87.0369590953829,84.6471723821609 M 86.4398058657476,85.1571894218546 M 85.8167787843871,85.6352549156242 M 85.1695855252254,86.0800585191813 M 84.5,86.4903810567666 M 83.8098574960932,86.8650978628255 M 83.101049646137,87.203181864639 M 82.3755192431795,87.503706397458 M 81.6352549156243,87.7658477444273 M 80.8822856765378,87.988887394336 M 80.1186753622664,88.1722140110071 M 79.3465169756035,88.3153251089271 M 78.5679269490148,88.4178284305241 M 77.7850393436442,88.4794430213186 M 77.0000000000001,88.5 M 76.2149606563559,88.4794430213186 M 75.4320730509853,88.4178284305241 M 74.6534830243966,88.3153251089271 M 73.8813246377337,88.1722140110071 M 73.1177143234623,87.988887394336 M 72.3647450843759,87.7658477444273 M 71.6244807568206,87.503706397458 M 70.8989503538631,87.203181864639 M 70.1901425039069,86.8650978628255 M 69.5000000000001,86.4903810567666 M 68.8304144747747,86.0800585191814 M 68.183221215613,85.6352549156243 M 67.5601941342525,85.1571894218546 M 66.9630409046172,84.647172382161 M 66.3933982822019,84.1066017177983 M 65.8528276178392,83.5369590953829 M 65.3428105781455,82.9398058657476 M 64.8647450843759,82.3167787843872 M 64.4199414808187,81.6695855252255 M 64.0096189432335,81.0000000000001 M 63.6349021371745,80.3098574960933 M 63.296818135361,79.6010496461371 M 62.996293602542,78.8755192431796 M 62.7341522555727,78.1352549156243 M 62.511112605664,77.3822856765378 M 62.3277859889929,76.6186753622664 M 62.184674891073,75.8465169756035 M 62.0821715694759,75.0679269490148 M 62.0205569786814,74.2850393436442 M 62.0,73.5 M 62.0205569786814,72.7149606563559 M 62.0821715694759,71.9320730509852 M 62.184674891073,71.1534830243965 M 62.3277859889929,70.3813246377336 M 62.511112605664,69.6177143234622 M 62.7341522555727,68.8647450843758 M 62.996293602542,68.1244807568205 M 63.296818135361,67.398950353863 M 63.6349021371745,66.6901425039068 M 64.0096189432334,66.0 M 64.4199414808187,65.3304144747746 M 64.8647450843758,64.6832212156129 M 65.3428105781455,64.0601941342524 M 65.8528276178391,63.4630409046171 M 66.3933982822018,62.8933982822018 M 66.9630409046172,62.352827617839 M 67.5601941342525,61.8428105781454 M 68.183221215613,61.3647450843758 M 68.8304144747747,60.9199414808186 M 69.5000000000001,60.5096189432334 M 70.1901425039069,60.1349021371744 M 70.8989503538631,59.796818135361 M 71.6244807568206,59.4962936025419 M 72.3647450843759,59.2341522555727 M 73.1177143234623,59.011112605664 M 73.8813246377337,58.8277859889929 M 74.6534830243967,58.6846748910729 M 75.4320730509853,58.5821715694759 M 76.214960656356,58.5205569786814 M 133.0,109.25 M 109.0,109.25 M 109.0,37.75 M 133.0,37.75 M 160.045284632676,83.4452189536827 M 160.0,83.4487829315673 M 160.0,84.6000000000001 M 158.0,84.5999999999999 M 158.0,83.4487829315673 M 157.954715367323,83.4452189536828 M 157.435655349598,83.3768834059514 M 156.920883091822,83.2814760073381 M 156.411809548975,83.1592582628907 M 155.90983005625,83.0105651629515 M 155.416320504547,82.835804264972 M 154.932633569242,82.6354545764259 M 154.460095002605,82.4100652418837 M 154.0,82.1602540378444 M 153.55360964985,81.8867056794542 M 153.122147477075,81.5901699437494 M 152.706796089502,81.2714596145697 M 152.308693936411,80.931448254774 M 151.928932188135,80.5710678118655 M 151.568551745226,80.1913060635886 M 151.22854038543,79.7932039104983 M 150.90983005625,79.3778525229247 M 150.613294320546,78.9463903501502 M 150.339745962156,78.5 M 150.089934758116,78.0399049973954 M 149.864545423574,77.567366430758 M 149.664195735028,77.083679495453 M 149.489434837048,76.5901699437494 M 149.340741737109,76.0881904510251 M 149.218523992662,75.5791169081776 M 149.123116594049,75.0643446504022 M 149.054781046317,74.5452846326765 M 149.013704652454,74.0233595624294 M 149.0,73.4999999999999 M 149.013704652454,72.9766404375705 M 149.054781046317,72.4547153673234 M 149.123116594049,71.9356553495976 M 149.218523992662,71.4208830918223 M 149.340741737109,70.9118095489747 M 149.489434837049,70.4098300562505 M 149.664195735028,69.9163205045469 M 149.864545423574,69.4326335692419 M 150.089934758116,68.9600950026044 M 150.339745962156,68.4999999999999 M 150.613294320546,68.0536096498496 M 150.909830056251,67.6221474770751 M 151.22854038543,67.2067960895015 M 151.568551745226,66.8086939364114 M 151.928932188135,66.4289321881345 M 152.308693936411,66.0685517452259 M 152.706796089502,65.7285403854303 M 153.122147477075,65.4098300562504 M 153.55360964985,65.1132943205457 M 154.0,64.8397459621555 M 154.460095002605,64.5899347581162 M 154.932633569242,64.3645454235739 M 155.416320504547,64.164195735028 M 155.909830056251,63.9894348370485 M 156.411809548975,63.8407417371093 M 156.920883091823,63.718523992662 M 157.435655349598,63.6231165940486 M 157.954715367324,63.5547810463173 M 158.476640437571,63.5137046524542 M 159.0,63.4999999999999 M 159.52335956243,63.5137046524542 M 160.045284632677,63.5547810463173 M 160.564344650402,63.6231165940486 M 161.079116908178,63.718523992662 M 161.588190451025,63.8407417371093 M 162.09016994375,63.9894348370485 M 162.583679495453,64.164195735028 M 163.067366430758,64.364545423574 M 163.539904997396,64.5899347581164 M 164.0,64.8397459621556 M 164.44639035015,65.1132943205458 M 164.877852522925,65.4098300562506 M 165.293203910498,65.7285403854303 M 165.691306063589,66.068551745226 M 166.071067811866,66.4289321881346 M 166.431448254774,66.8086939364115 M 166.77145961457,67.2067960895017 M 167.09016994375,67.6221474770753 M 167.386705679454,68.0536096498498 M 167.660254037844,68.5000000000001 M 167.910065241884,68.9600950026046 M 168.135454576426,69.432633569242 M 168.335804264972,69.916320504547 M 168.510565162952,70.4098300562505 M 168.659258262891,70.9118095489749 M 168.781476007338,71.4208830918225 M 168.876883405951,71.9356553495977 M 168.945218953683,72.4547153673236 M 168.986295347546,72.9766404375706 M 169.0,73.5000000000001 M 168.986295347546,74.0233595624296 M 168.945218953683,74.5452846326766 M 168.876883405951,75.0643446504024 M 168.781476007338,75.5791169081776 M 168.659258262891,76.0881904510254 M 168.510565162952,76.5901699437495 M 168.335804264972,77.0836794954531 M 168.135454576426,77.5673664307581 M 167.910065241884,78.0399049973955 M 167.660254037844,78.5 M 167.386705679454,78.9463903501503 M 167.090169943749,79.3778525229247 M 166.77145961457,79.7932039104985 M 166.431448254774,80.1913060635886 M 166.071067811865,80.5710678118655 M 165.691306063589,80.931448254774 M 165.293203910498,81.2714596145697 M 164.877852522925,81.5901699437495 M 164.44639035015,81.8867056794543 M 164.0,82.1602540378445 M 163.539904997395,82.4100652418837 M 163.067366430758,82.635454576426 M 162.583679495453,82.835804264972 M 162.090169943749,83.0105651629515 M 161.588190451025,83.1592582628907 M 161.079116908178,83.2814760073381 M 160.564344650402,83.3768834059514 "
  />
</svg>
