<?xml version="1.0" standalone="no"?>
<!DOCTYPE svg PUBLIC "-//W3C//DTD SVG 1.1//EN" "http://www.w3.org/Graphics/SVG/1.1/DTD/svg11.dtd">
<svg width="168.0mm" height="117.0mm"
 viewBox="0 0 168.0 117.0"
 xmlns="http://www.w3.org/2000/svg" version="1.1"
 xmlns:xlink="http://www.w3.org/1999/xlink">
<desc>Output from Flights of Ideas SVG Sketchup Plugin</desc>

<g id="text_annotations" font-size="10" stroke="rgb(255,0,0)" stroke-width=".5">
</g>
  <path id="face0-cut"
 style="fill:none;stroke:rgb(0,0,255);stroke-width:.5;stroke-miterlimit:4;stroke-dasharray:none;stroke-linejoin:round;stroke-linecap:round"
        d="M 50.511112605664,54.6177143234622 M 50.0,58.5 M 50.511112605664,62.3822856765378 M 52.0096189432334,66.0 M 54.3933982822018,69.1066017177982 M 57.5,71.4903810567666 M 61.1177143234622,72.988887394336 M 65.0,73.5 M 68.8822856765379,72.988887394336 M 72.5000000000001,71.4903810567666 M 75.6066017177983,69.1066017177982 M 77.9903810567667,66.0 M 79.4888873943361,62.3822856765378 M 80.0000000000001,58.5 M 79.4888873943361,54.6177143234622 M 77.9903810567667,51.0 M 75.6066017177983,47.8933982822018 M 72.5000000000001,45.5096189432334 M 68.8822856765379,44.011112605664 M 65.0,43.5 M 61.1177143234622,44.011112605664 M 57.5,45.5096189432334 M 54.3933982822018,47.8933982822018 M 52.0096189432334,51.0 "
  />
  <path id="face1-cut"
 style="fill:none;stroke:rgb(0,0,255);stroke-width:.5;stroke-miterlimit:4;stroke-dasharray:none;stroke-linejoin:round;stroke-linecap:round"
        d="M 106.0,94.25 M 130.0,94.25 M 130.0,22.75 M 106.0,22.75 "
  />
  <path id="face2-cut"
 style="fill:none;stroke:rgb(0,0,255);stroke-width:.5;stroke-miterlimit:4;stroke-dasharray:none;stroke-linejoin:round;stroke-linecap:round"
        d="M 144.691190484055,61.5185182071536 M 145.5,61.6249999999999 M 146.308809515945,61.5185182071534 M 147.0625,61.2063293868264 M 147.709708691208,60.7097086912079 M 148.206329386826,60.0625000000004 M 148.518518207153,59.3088095159456 M 148.625,58.4999999999998 M 148.518518207153,57.6911904840545 M 148.206329386826,56.9375 M 147.709708691208,56.2902913087918 M 147.0625,55.793670613174 M 146.308809515945,55.4814817928463 M 145.5,55.3749999999982 M 144.691190484055,55.4814817928457 M 143.9375,55.7936706131748 M 143.290291308792,56.2902913087919 M 142.793670613174,56.9375000000002 M 142.481481792847,57.6911904840548 M 142.375,58.5000000000002 M 142.481481792847,59.3088095159453 M 142.793670613174,60.0625 M 143.290291308792,60.7097086912081 M 143.9375,61.2063293868264 "
  />
  <path id="face3-cut"
 style="fill:none;stroke:rgb(0,0,255);stroke-width:.5;stroke-miterlimit:4;stroke-dasharray:none;stroke-linejoin:round;stroke-linecap:round"
        d="M 151.625,98.2344555433772 M 151.202933328929,98.0596298039942 M 150.75,98.0 M 150.297066671071,98.0596298039941 M 149.875,98.2344555433772 M 149.512563132924,98.5125631329235 M 149.234455543377,98.875 M 149.059629803994,99.2970666710706 M 149.0,99.75 M 149.059629803994,100.202933328929 M 149.234455543377,100.625 M 149.512563132924,100.987436867076 M 149.875,101.265544456623 M 150.297066671071,101.440370196006 M 150.75,101.5 M 151.202933328929,101.440370196006 M 151.625,101.265544456623 M 151.987436867076,100.987436867076 M 152.265544456623,100.625 M 152.440370196006,100.202933328929 M 152.5,99.75 M 152.440370196006,99.2970666710706 M 152.265544456623,98.875 M 151.987436867076,98.5125631329236 "
  />
  <path id="face4-cut"
 style="fill:none;stroke:rgb(0,0,255);stroke-width:.5;stroke-miterlimit:4;stroke-dasharray:none;stroke-linejoin:round;stroke-linecap:round"
        d="M 151.202933328929,15.5596298039941 M 150.75,15.5 M 150.297066671071,15.5596298039942 M 149.875,15.7344555433773 M 149.512563132924,16.0125631329236 M 149.234455543377,16.375 M 149.059629803994,16.7970666710706 M 149.0,17.25 M 149.059629803994,17.7029333289294 M 149.234455543377,18.125 M 149.512563132924,18.4874368670765 M 149.875,18.7655444566228 M 150.297066671071,18.9403701960059 M 150.75,19.0 M 151.202933328929,18.9403701960058 M 151.625,18.7655444566228 M 151.987436867076,18.4874368670764 M 152.265544456623,18.125 M 152.440370196006,17.7029333289294 M 152.5,17.25 M 152.440370196006,16.7970666710706 M 152.265544456623,16.3750000000001 M 151.987436867076,16.0125631329236 M 151.625,15.7344555433772 "
  />
  <path id="face5-cut"
 style="fill:none;stroke:rgb(0,0,255);stroke-width:.5;stroke-miterlimit:4;stroke-dasharray:none;stroke-linejoin:round;stroke-linecap:round"
        d="M 16.7970666710706,18.9403701960059 M 17.25,19.0 M 17.7029333289294,18.9403701960059 M 18.125,18.7655444566228 M 18.4874368670765,18.4874368670765 M 18.7655444566228,18.125 M 18.9403701960059,17.7029333289294 M 19.0,17.25 M 18.9403701960059,16.7970666710706 M 18.7655444566228,16.375 M 18.4874368670765,16.0125631329235 M 18.125,15.7344555433772 M 17.7029333289294,15.5596298039941 M 17.25,15.5 M 16.7970666710706,15.5596298039941 M 16.375,15.7344555433772 M 16.0125631329236,16.0125631329236 M 15.7344555433773,16.375 M 15.5596298039941,16.7970666710706 M 15.5,17.25 M 15.5596298039941,17.7029333289294 M 15.7344555433773,18.125 M 16.0125631329236,18.4874368670765 M 16.375,18.7655444566228 "
  />
  <path id="face6-cut"
 style="fill:none;stroke:rgb(0,0,255);stroke-width:.5;stroke-miterlimit:4;stroke-dasharray:none;stroke-linejoin:round;stroke-linecap:round"
        d="M 17.7029333289294,98.0596298039941 M 17.25,98.0 M 16.7970666710706,98.0596298039942 M 16.375,98.2344555433772 M 16.0125631329236,98.5125631329235 M 15.7344555433772,98.875 M 15.5596298039941,99.2970666710706 M 15.5,99.75 M 15.5596298039941,100.202933328929 M 15.7344555433772,100.625 M 16.0125631329236,100.987436867076 M 16.375,101.265544456623 M 16.7970666710706,101.440370196006 M 17.25,101.5 M 17.7029333289294,101.440370196006 M 18.125,101.265544456623 M 18.4874368670765,100.987436867076 M 18.7655444566228,100.625 M 18.9403701960059,100.202933328929 M 19.0,99.75 M 18.9403701960059,99.2970666710706 M 18.7655444566228,98.875 M 18.4874368670765,98.5125631329236 M 18.125,98.2344555433773 "
  />
  <path id="face7-cut"
 style="fill:none;stroke:rgb(0,0,255);stroke-width:.5;stroke-miterlimit:4;stroke-dasharray:none;stroke-linejoin:round;stroke-linecap:round"
        d="M 133.888228567654,94.5511112605664 M 133.5,94.5 M 133.111771432346,94.5511112605664 M 132.75,94.7009618943233 M 132.43933982822,94.9393398282202 M 132.200961894323,95.25 M 132.051111260566,95.6117714323463 M 132.0,96.0 M 132.051111260566,96.3882285676538 M 132.200961894323,96.75 M 132.43933982822,97.0606601717798 M 132.75,97.2990381056767 M 133.111771432346,97.4488887394336 M 133.5,97.5 M 133.888228567654,97.4488887394336 M 134.25,97.2990381056767 M 134.56066017178,97.0606601717798 M 134.799038105676,96.75 M 134.948888739433,96.3882285676538 M 135.0,96.0 M 134.948888739433,95.6117714323462 M 134.799038105676,95.25 M 134.56066017178,94.9393398282202 M 134.25,94.7009618943233 "
  />
  <path id="face8-cut"
 style="fill:none;stroke:rgb(0,0,255);stroke-width:.5;stroke-miterlimit:4;stroke-dasharray:none;stroke-linejoin:round;stroke-linecap:round"
        d="M 133.888228567654,19.5511112605664 M 133.5,19.5 M 133.111771432346,19.5511112605664 M 132.75,19.7009618943233 M 132.43933982822,19.9393398282202 M 132.200961894323,20.25 M 132.051111260566,20.6117714323462 M 132.0,21.0 M 132.051111260566,21.3882285676538 M 132.200961894323,21.75 M 132.43933982822,22.0606601717798 M 132.75,22.2990381056766 M 133.111771432346,22.4488887394336 M 133.5,22.5 M 133.888228567654,22.4488887394336 M 134.25,22.2990381056767 M 134.56066017178,22.0606601717798 M 134.799038105676,21.75 M 134.948888739433,21.3882285676538 M 135.0,21.0 M 134.948888739433,20.6117714323462 M 134.799038105676,20.25 M 134.56066017178,19.9393398282202 M 134.25,19.7009618943233 "
  />
  <path id="face9-cut"
 style="fill:none;stroke:rgb(0,0,255);stroke-width:.5;stroke-miterlimit:4;stroke-dasharray:none;stroke-linejoin:round;stroke-linecap:round"
        d="M 102.888228567654,19.5511112605664 M 102.5,19.5 M 102.111771432346,19.5511112605664 M 101.75,19.7009618943234 M 101.43933982822,19.9393398282202 M 101.200961894323,20.25 M 101.051111260566,20.6117714323462 M 101.0,21.0 M 101.051111260566,21.3882285676538 M 101.200961894323,21.75 M 101.43933982822,22.0606601717798 M 101.75,22.2990381056767 M 102.111771432346,22.4488887394336 M 102.5,22.5 M 102.888228567654,22.4488887394336 M 103.25,22.2990381056767 M 103.56066017178,22.0606601717798 M 103.799038105677,21.75 M 103.948888739434,21.3882285676538 M 104.0,21.0 M 103.948888739434,20.6117714323462 M 103.799038105677,20.25 M 103.56066017178,19.9393398282202 M 103.25,19.7009618943234 "
  />
  <path id="face10-cut"
 style="fill:none;stroke:rgb(0,0,255);stroke-width:.5;stroke-miterlimit:4;stroke-dasharray:none;stroke-linejoin:round;stroke-linecap:round"
        d="M 102.888228567654,94.5511112605664 M 102.5,94.5 M 102.111771432346,94.5511112605664 M 101.75,94.7009618943233 M 101.43933982822,94.9393398282202 M 101.200961894323,95.25 M 101.051111260566,95.6117714323462 M 101.0,96.0 M 101.051111260566,96.3882285676538 M 101.200961894323,96.75 M 101.43933982822,97.0606601717798 M 101.75,97.2990381056767 M 102.111771432346,97.4488887394336 M 102.5,97.5 M 102.888228567654,97.4488887394336 M 103.25,97.2990381056767 M 103.56066017178,97.0606601717798 M 103.799038105677,96.75 M 103.948888739434,96.3882285676538 M 104.0,96.0 M 103.948888739434,95.6117714323462 M 103.799038105677,95.25 M 103.56066017178,94.9393398282202 M 103.25,94.7009618943234 "
  />
  <path id="face11-cut"
 style="fill:none;stroke:rgb(0,0,255);stroke-width:.5;stroke-miterlimit:4;stroke-dasharray:none;stroke-linejoin:round;stroke-linecap:round"
        d="M 10.0,13.5 L 10.0,103.5 L 10.1192596079883,104.405866657859 L 10.4689110867545,105.25 L 11.0251262658471,105.974873734153 L 11.75,106.531088913246 L 12.5941333421412,106.880740392012 L 13.5,107.0 L 154.5,107.0 L 155.405866657859,106.880740392012 L 156.25,106.531088913246 L 156.974873734153,105.974873734153 L 157.531088913246,105.25 L 157.880740392012,104.405866657859 L 158.0,103.5 L 158.0,13.5 L 157.880740392012,12.5941333421412 L 157.531088913246,11.75 L 156.974873734153,11.0251262658471 L 156.25,10.4689110867545 L 155.405866657859,10.1192596079883 L 154.5,10.0 L 13.5,10.0 L 12.5941333421412,10.1192596079883 L 11.75,10.4689110867545 L 11.0251262658471,11.0251262658471 L 10.4689110867545,11.75 L 10.1192596079883,12.5941333421412 L 10.0,13.5 M 50.0,58.5 M 50.511112605664,54.6177143234622 M 52.0096189432334,51.0 M 54.3933982822018,47.8933982822018 M 57.5,45.5096189432334 M 61.1177143234622,44.011112605664 M 65.0,43.5 M 68.8822856765379,44.011112605664 M 72.5000000000001,45.5096189432334 M 75.6066017177983,47.8933982822018 M 77.9903810567667,51.0 M 79.4888873943361,54.6177143234622 M 80.0000000000001,58.5 M 79.4888873943361,62.3822856765378 M 77.9903810567667,66.0 M 75.6066017177983,69.1066017177982 M 72.5000000000001,71.4903810567666 M 68.8822856765379,72.988887394336 M 65.0,73.5 M 61.1177143234622,72.988887394336 M 57.5,71.4903810567666 M 54.3933982822018,69.1066017177982 M 52.0096189432334,66.0 M 50.511112605664,62.3822856765378 M 130.0,94.25 M 106.0,94.25 M 106.0,22.75 M 130.0,22.75 M 143.9375,61.2063293868264 M 143.290291308792,60.7097086912081 M 142.793670613174,60.0625 M 142.481481792847,59.3088095159453 M 142.375,58.5000000000002 M 142.481481792847,57.6911904840548 M 142.793670613174,56.9375000000002 M 143.290291308792,56.2902913087919 M 143.9375,55.7936706131748 M 144.691190484055,55.4814817928457 M 145.5,55.3749999999982 M 146.308809515945,55.4814817928463 M 147.0625,55.793670613174 M 147.709708691208,56.2902913087918 M 148.206329386826,56.9375 M 148.518518207153,57.6911904840545 M 148.625,58.4999999999998 M 148.518518207153,59.3088095159456 M 148.206329386826,60.0625000000004 M 147.709708691208,60.7097086912079 M 147.0625,61.2063293868264 M 146.308809515945,61.5185182071534 M 145.5,61.6249999999999 M 144.691190484055,61.5185182071536 M 151.202933328929,98.0596298039942 M 151.625,98.2344555433772 M 151.987436867076,98.5125631329236 M 152.265544456623,98.875 M 152.440370196006,99.2970666710706 M 152.5,99.75 M 152.440370196006,100.202933328929 M 152.265544456623,100.625 M 151.987436867076,100.987436867076 M 151.625,101.265544456623 M 151.202933328929,101.440370196006 M 150.75,101.5 M 150.297066671071,101.440370196006 M 149.875,101.265544456623 M 149.512563132924,100.987436867076 M 149.234455543377,100.625 M 149.059629803994,100.202933328929 M 149.0,99.75 M 149.059629803994,99.2970666710706 M 149.234455543377,98.875 M 149.512563132924,98.5125631329235 M 149.875,98.2344555433772 M 150.297066671071,98.0596298039941 M 150.75,98.0 M 150.75,15.5 M 151.202933328929,15.5596298039941 M 151.625,15.7344555433772 M 151.987436867076,16.0125631329236 M 152.265544456623,16.3750000000001 M 152.440370196006,16.7970666710706 M 152.5,17.25 M 152.440370196006,17.7029333289294 M 152.265544456623,18.125 M 151.987436867076,18.4874368670764 M 151.625,18.7655444566228 M 151.202933328929,18.9403701960058 M 150.75,19.0 M 150.297066671071,18.9403701960059 M 149.875,18.7655444566228 M 149.512563132924,18.4874368670765 M 149.234455543377,18.125 M 149.059629803994,17.7029333289294 M 149.0,17.25 M 149.059629803994,16.7970666710706 M 149.234455543377,16.375 M 149.512563132924,16.0125631329236 M 149.875,15.7344555433773 M 150.297066671071,15.5596298039942 M 17.25,19.0 M 16.7970666710706,18.9403701960059 M 16.375,18.7655444566228 M 16.0125631329236,18.4874368670765 M 15.7344555433773,18.125 M 15.5596298039941,17.7029333289294 M 15.5,17.25 M 15.5596298039941,16.7970666710706 M 15.7344555433773,16.375 M 16.0125631329236,16.0125631329236 M 16.375,15.7344555433772 M 16.7970666710706,15.5596298039941 M 17.25,15.5 M 17.7029333289294,15.5596298039941 M 18.125,15.7344555433772 M 18.4874368670765,16.0125631329235 M 18.7655444566228,16.375 M 18.9403701960059,16.7970666710706 M 19.0,17.25 M 18.9403701960059,17.7029333289294 M 18.7655444566228,18.125 M 18.4874368670765,18.4874368670765 M 18.125,18.7655444566228 M 17.7029333289294,18.9403701960059 M 17.25,98.0 M 17.7029333289294,98.0596298039941 M 18.125,98.2344555433773 M 18.4874368670765,98.5125631329236 M 18.7655444566228,98.875 M 18.9403701960059,99.2970666710706 M 19.0,99.75 M 18.9403701960059,100.202933328929 M 18.7655444566228,100.625 M 18.4874368670765,100.987436867076 M 18.125,101.265544456623 M 17.7029333289294,101.440370196006 M 17.25,101.5 M 16.7970666710706,101.440370196006 M 16.375,101.265544456623 M 16.0125631329236,100.987436867076 M 15.7344555433772,100.625 M 15.5596298039941,100.202933328929 M 15.5,99.75 M 15.5596298039941,99.2970666710706 M 15.7344555433772,98.875 M 16.0125631329236,98.5125631329235 M 16.375,98.2344555433772 M 16.7970666710706,98.0596298039942 M 133.5,94.5 M 133.888228567654,94.5511112605664 M 134.25,94.7009618943233 M 134.56066017178,94.9393398282202 M 134.799038105676,95.25 M 134.948888739433,95.6117714323462 M 135.0,96.0 M 134.948888739433,96.3882285676538 M 134.799038105676,96.75 M 134.56066017178,97.0606601717798 M 134.25,97.2990381056767 M 133.888228567654,97.4488887394336 M 133.5,97.5 M 133.111771432346,97.4488887394336 M 132.75,97.2990381056767 M 132.43933982822,97.0606601717798 M 132.200961894323,96.75 M 132.051111260566,96.3882285676538 M 132.0,96.0 M 132.051111260566,95.6117714323463 M 132.200961894323,95.25 M 132.43933982822,94.9393398282202 M 132.75,94.7009618943233 M 133.111771432346,94.5511112605664 M 133.5,19.5 M 133.888228567654,19.5511112605664 M 134.25,19.7009618943233 M 134.56066017178,19.9393398282202 M 134.799038105676,20.25 M 134.948888739433,20.6117714323462 M 135.0,21.0 M 134.948888739433,21.3882285676538 M 134.799038105676,21.75 M 134.56066017178,22.0606601717798 M 134.25,22.2990381056767 M 133.888228567654,22.4488887394336 M 133.5,22.5 M 133.111771432346,22.4488887394336 M 132.75,22.2990381056766 M 132.43933982822,22.0606601717798 M 132.200961894323,21.75 M 132.051111260566,21.3882285676538 M 132.0,21.0 M 132.051111260566,20.6117714323462 M 132.200961894323,20.25 M 132.43933982822,19.9393398282202 M 132.75,19.7009618943233 M 133.111771432346,19.5511112605664 M 102.5,19.5 M 102.888228567654,19.5511112605664 M 103.25,19.7009618943234 M 103.56066017178,19.9393398282202 M 103.799038105677,20.25 M 103.948888739434,20.6117714323462 M 104.0,21.0 M 103.948888739434,21.3882285676538 M 103.799038105677,21.75 M 103.56066017178,22.0606601717798 M 103.25,22.2990381056767 M 102.888228567654,22.4488887394336 M 102.5,22.5 M 102.111771432346,22.4488887394336 M 101.75,22.2990381056767 M 101.43933982822,22.0606601717798 M 101.200961894323,21.75 M 101.051111260566,21.3882285676538 M 101.0,21.0 M 101.051111260566,20.6117714323462 M 101.200961894323,20.25 M 101.43933982822,19.9393398282202 M 101.75,19.7009618943234 M 102.111771432346,19.5511112605664 M 102.5,94.5 M 102.888228567654,94.5511112605664 M 103.25,94.7009618943234 M 103.56066017178,94.9393398282202 M 103.799038105677,95.25 M 103.948888739434,95.6117714323462 M 104.0,96.0 M 103.948888739434,96.3882285676538 M 103.799038105677,96.75 M 103.56066017178,97.0606601717798 M 103.25,97.2990381056767 M 102.888228567654,97.4488887394336 M 102.5,97.5 M 102.111771432346,97.4488887394336 M 101.75,97.2990381056767 M 101.43933982822,97.0606601717798 M 101.200961894323,96.75 M 101.051111260566,96.3882285676538 M 101.0,96.0 M 101.051111260566,95.6117714323462 M 101.200961894323,95.25 M 101.43933982822,94.9393398282202 M 101.75,94.7009618943233 M 102.111771432346,94.5511112605664 "
  />
  <path id="face0-interior"
 style="fill:none;stroke:rgb(255,0,0);stroke-width:.5;stroke-miterlimit:4;stroke-dasharray:none;stroke-linejoin:round;stroke-linecap:round"
        d="M 50.511112605664,54.6177143234622 L 50.0,58.5 L 50.511112605664,62.3822856765378 L 52.0096189432334,66.0 L 54.3933982822018,69.1066017177982 L 57.5,71.4903810567666 L 61.1177143234622,72.988887394336 L 65.0,73.5 L 68.8822856765379,72.988887394336 L 72.5000000000001,71.4903810567666 L 75.6066017177983,69.1066017177982 L 77.9903810567667,66.0 L 79.4888873943361,62.3822856765378 L 80.0000000000001,58.5 L 79.4888873943361,54.6177143234622 L 77.9903810567667,51.0 L 75.6066017177983,47.8933982822018 L 72.5000000000001,45.5096189432334 L 68.8822856765379,44.011112605664 L 65.0,43.5 L 61.1177143234622,44.011112605664 L 57.5,45.5096189432334 L 54.3933982822018,47.8933982822018 L 52.0096189432334,51.0 L 50.511112605664,54.6177143234622 "
  />
  <path id="face1-interior"
 style="fill:none;stroke:rgb(255,0,0);stroke-width:.5;stroke-miterlimit:4;stroke-dasharray:none;stroke-linejoin:round;stroke-linecap:round"
        d="M 106.0,94.25 L 130.0,94.25 L 130.0,22.75 L 106.0,22.75 L 106.0,94.25 "
  />
  <path id="face2-interior"
 style="fill:none;stroke:rgb(255,0,0);stroke-width:.5;stroke-miterlimit:4;stroke-dasharray:none;stroke-linejoin:round;stroke-linecap:round"
        d="M 144.691190484055,61.5185182071536 L 145.5,61.6249999999999 L 146.308809515945,61.5185182071534 L 147.0625,61.2063293868264 L 147.709708691208,60.7097086912079 L 148.206329386826,60.0625000000004 L 148.518518207153,59.3088095159456 L 148.625,58.4999999999998 L 148.518518207153,57.6911904840545 L 148.206329386826,56.9375 L 147.709708691208,56.2902913087918 L 147.0625,55.793670613174 L 146.308809515945,55.4814817928463 L 145.5,55.3749999999982 L 144.691190484055,55.4814817928457 L 143.9375,55.7936706131748 L 143.290291308792,56.2902913087919 L 142.793670613174,56.9375000000002 L 142.481481792847,57.6911904840548 L 142.375,58.5000000000002 L 142.481481792847,59.3088095159453 L 142.793670613174,60.0625 L 143.290291308792,60.7097086912081 L 143.9375,61.2063293868264 L 144.691190484055,61.5185182071536 "
  />
  <path id="face3-interior"
 style="fill:none;stroke:rgb(255,0,0);stroke-width:.5;stroke-miterlimit:4;stroke-dasharray:none;stroke-linejoin:round;stroke-linecap:round"
        d="M 151.625,98.2344555433772 L 151.202933328929,98.0596298039942 L 150.75,98.0 L 150.297066671071,98.0596298039941 L 149.875,98.2344555433772 L 149.512563132924,98.5125631329235 L 149.234455543377,98.875 L 149.059629803994,99.2970666710706 L 149.0,99.75 L 149.059629803994,100.202933328929 L 149.234455543377,100.625 L 149.512563132924,100.987436867076 L 149.875,101.265544456623 L 150.297066671071,101.440370196006 L 150.75,101.5 L 151.202933328929,101.440370196006 L 151.625,101.265544456623 L 151.987436867076,100.987436867076 L 152.265544456623,100.625 L 152.440370196006,100.202933328929 L 152.5,99.75 L 152.440370196006,99.2970666710706 L 152.265544456623,98.875 L 151.987436867076,98.5125631329236 L 151.625,98.2344555433772 "
  />
  <path id="face4-interior"
 style="fill:none;stroke:rgb(255,0,0);stroke-width:.5;stroke-miterlimit:4;stroke-dasharray:none;stroke-linejoin:round;stroke-linecap:round"
        d="M 151.202933328929,15.5596298039941 L 150.75,15.5 L 150.297066671071,15.5596298039942 L 149.875,15.7344555433773 L 149.512563132924,16.0125631329236 L 149.234455543377,16.375 L 149.059629803994,16.7970666710706 L 149.0,17.25 L 149.059629803994,17.7029333289294 L 149.234455543377,18.125 L 149.512563132924,18.4874368670765 L 149.875,18.7655444566228 L 150.297066671071,18.9403701960059 L 150.75,19.0 L 151.202933328929,18.9403701960058 L 151.625,18.7655444566228 L 151.987436867076,18.4874368670764 L 152.265544456623,18.125 L 152.440370196006,17.7029333289294 L 152.5,17.25 L 152.440370196006,16.7970666710706 L 152.265544456623,16.3750000000001 L 151.987436867076,16.0125631329236 L 151.625,15.7344555433772 L 151.202933328929,15.5596298039941 "
  />
  <path id="face5-interior"
 style="fill:none;stroke:rgb(255,0,0);stroke-width:.5;stroke-miterlimit:4;stroke-dasharray:none;stroke-linejoin:round;stroke-linecap:round"
        d="M 16.7970666710706,18.9403701960059 L 17.25,19.0 L 17.7029333289294,18.9403701960059 L 18.125,18.7655444566228 L 18.4874368670765,18.4874368670765 L 18.7655444566228,18.125 L 18.9403701960059,17.7029333289294 L 19.0,17.25 L 18.9403701960059,16.7970666710706 L 18.7655444566228,16.375 L 18.4874368670765,16.0125631329235 L 18.125,15.7344555433772 L 17.7029333289294,15.5596298039941 L 17.25,15.5 L 16.7970666710706,15.5596298039941 L 16.375,15.7344555433772 L 16.0125631329236,16.0125631329236 L 15.7344555433773,16.375 L 15.5596298039941,16.7970666710706 L 15.5,17.25 L 15.5596298039941,17.7029333289294 L 15.7344555433773,18.125 L 16.0125631329236,18.4874368670765 L 16.375,18.7655444566228 L 16.7970666710706,18.9403701960059 "
  />
  <path id="face6-interior"
 style="fill:none;stroke:rgb(255,0,0);stroke-width:.5;stroke-miterlimit:4;stroke-dasharray:none;stroke-linejoin:round;stroke-linecap:round"
        d="M 17.7029333289294,98.0596298039941 L 17.25,98.0 L 16.7970666710706,98.0596298039942 L 16.375,98.2344555433772 L 16.0125631329236,98.5125631329235 L 15.7344555433772,98.875 L 15.5596298039941,99.2970666710706 L 15.5,99.75 L 15.5596298039941,100.202933328929 L 15.7344555433772,100.625 L 16.0125631329236,100.987436867076 L 16.375,101.265544456623 L 16.7970666710706,101.440370196006 L 17.25,101.5 L 17.7029333289294,101.440370196006 L 18.125,101.265544456623 L 18.4874368670765,100.987436867076 L 18.7655444566228,100.625 L 18.9403701960059,100.202933328929 L 19.0,99.75 L 18.9403701960059,99.2970666710706 L 18.7655444566228,98.875 L 18.4874368670765,98.5125631329236 L 18.125,98.2344555433773 L 17.7029333289294,98.0596298039941 "
  />
  <path id="face7-interior"
 style="fill:none;stroke:rgb(255,0,0);stroke-width:.5;stroke-miterlimit:4;stroke-dasharray:none;stroke-linejoin:round;stroke-linecap:round"
        d="M 133.888228567654,94.5511112605664 L 133.5,94.5 L 133.111771432346,94.5511112605664 L 132.75,94.7009618943233 L 132.43933982822,94.9393398282202 L 132.200961894323,95.25 L 132.051111260566,95.6117714323463 L 132.0,96.0 L 132.051111260566,96.3882285676538 L 132.200961894323,96.75 L 132.43933982822,97.0606601717798 L 132.75,97.2990381056767 L 133.111771432346,97.4488887394336 L 133.5,97.5 L 133.888228567654,97.4488887394336 L 134.25,97.2990381056767 L 134.56066017178,97.0606601717798 L 134.799038105676,96.75 L 134.948888739433,96.3882285676538 L 135.0,96.0 L 134.948888739433,95.6117714323462 L 134.799038105676,95.25 L 134.56066017178,94.9393398282202 L 134.25,94.7009618943233 L 133.888228567654,94.5511112605664 "
  />
  <path id="face8-interior"
 style="fill:none;stroke:rgb(255,0,0);stroke-width:.5;stroke-miterlimit:4;stroke-dasharray:none;stroke-linejoin:round;stroke-linecap:round"
        d="M 133.888228567654,19.5511112605664 L 133.5,19.5 L 133.111771432346,19.5511112605664 L 132.75,19.7009618943233 L 132.43933982822,19.9393398282202 L 132.200961894323,20.25 L 132.051111260566,20.6117714323462 L 132.0,21.0 L 132.051111260566,21.3882285676538 L 132.200961894323,21.75 L 132.43933982822,22.0606601717798 L 132.75,22.2990381056766 L 133.111771432346,22.4488887394336 L 133.5,22.5 L 133.888228567654,22.4488887394336 L 134.25,22.2990381056767 L 134.56066017178,22.0606601717798 L 134.799038105676,21.75 L 134.948888739433,21.3882285676538 L 135.0,21.0 L 134.948888739433,20.6117714323462 L 134.799038105676,20.25 L 134.56066017178,19.9393398282202 L 134.25,19.7009618943233 L 133.888228567654,19.5511112605664 "
  />
  <path id="face9-interior"
 style="fill:none;stroke:rgb(255,0,0);stroke-width:.5;stroke-miterlimit:4;stroke-dasharray:none;stroke-linejoin:round;stroke-linecap:round"
        d="M 102.888228567654,19.5511112605664 L 102.5,19.5 L 102.111771432346,19.5511112605664 L 101.75,19.7009618943234 L 101.43933982822,19.9393398282202 L 101.200961894323,20.25 L 101.051111260566,20.6117714323462 L 101.0,21.0 L 101.051111260566,21.3882285676538 L 101.200961894323,21.75 L 101.43933982822,22.0606601717798 L 101.75,22.2990381056767 L 102.111771432346,22.4488887394336 L 102.5,22.5 L 102.888228567654,22.4488887394336 L 103.25,22.2990381056767 L 103.56066017178,22.0606601717798 L 103.799038105677,21.75 L 103.948888739434,21.3882285676538 L 104.0,21.0 L 103.948888739434,20.6117714323462 L 103.799038105677,20.25 L 103.56066017178,19.9393398282202 L 103.25,19.7009618943234 L 102.888228567654,19.5511112605664 "
  />
  <path id="face10-interior"
 style="fill:none;stroke:rgb(255,0,0);stroke-width:.5;stroke-miterlimit:4;stroke-dasharray:none;stroke-linejoin:round;stroke-linecap:round"
        d="M 102.888228567654,94.5511112605664 L 102.5,94.5 L 102.111771432346,94.5511112605664 L 101.75,94.7009618943233 L 101.43933982822,94.9393398282202 L 101.200961894323,95.25 L 101.051111260566,95.6117714323462 L 101.0,96.0 L 101.051111260566,96.3882285676538 L 101.200961894323,96.75 L 101.43933982822,97.0606601717798 L 101.75,97.2990381056767 L 102.111771432346,97.4488887394336 L 102.5,97.5 L 102.888228567654,97.4488887394336 L 103.25,97.2990381056767 L 103.56066017178,97.0606601717798 L 103.799038105677,96.75 L 103.948888739434,96.3882285676538 L 104.0,96.0 L 103.948888739434,95.6117714323462 L 103.799038105677,95.25 L 103.56066017178,94.9393398282202 L 103.25,94.7009618943234 L 102.888228567654,94.5511112605664 "
  />
  <path id="face11-interior"
 style="fill:none;stroke:rgb(255,0,0);stroke-width:.5;stroke-miterlimit:4;stroke-dasharray:none;stroke-linejoin:round;stroke-linecap:round"
        d="M 10.0,13.5 M 10.0,103.5 M 10.1192596079883,104.405866657859 M 10.4689110867545,105.25 M 11.0251262658471,105.974873734153 M 11.75,106.531088913246 M 12.5941333421412,106.880740392012 M 13.5,107.0 M 154.5,107.0 M 155.405866657859,106.880740392012 M 156.25,106.531088913246 M 156.974873734153,105.974873734153 M 157.531088913246,105.25 M 157.880740392012,104.405866657859 M 158.0,103.5 M 158.0,13.5 M 157.880740392012,12.5941333421412 M 157.531088913246,11.75 M 156.974873734153,11.0251262658471 M 156.25,10.4689110867545 M 155.405866657859,10.1192596079883 M 154.5,10.0 M 13.5,10.0 M 12.5941333421412,10.1192596079883 M 11.75,10.4689110867545 M 11.0251262658471,11.0251262658471 M 10.4689110867545,11.75 M 10.1192596079883,12.5941333421412 M 50.0,58.5 M 50.511112605664,54.6177143234622 M 52.0096189432334,51.0 M 54.3933982822018,47.8933982822018 M 57.5,45.5096189432334 M 61.1177143234622,44.011112605664 M 65.0,43.5 M 68.8822856765379,44.011112605664 M 72.5000000000001,45.5096189432334 M 75.6066017177983,47.8933982822018 M 77.9903810567667,51.0 M 79.4888873943361,54.6177143234622 M 80.0000000000001,58.5 M 79.4888873943361,62.3822856765378 M 77.9903810567667,66.0 M 75.6066017177983,69.1066017177982 M 72.5000000000001,71.4903810567666 M 68.8822856765379,72.988887394336 M 65.0,73.5 M 61.1177143234622,72.988887394336 M 57.5,71.4903810567666 M 54.3933982822018,69.1066017177982 M 52.0096189432334,66.0 M 50.511112605664,62.3822856765378 M 130.0,94.25 M 106.0,94.25 M 106.0,22.75 M 130.0,22.75 M 143.9375,61.2063293868264 M 143.290291308792,60.7097086912081 M 142.793670613174,60.0625 M 142.481481792847,59.3088095159453 M 142.375,58.5000000000002 M 142.481481792847,57.6911904840548 M 142.793670613174,56.9375000000002 M 143.290291308792,56.2902913087919 M 143.9375,55.7936706131748 M 144.691190484055,55.4814817928457 M 145.5,55.3749999999982 M 146.308809515945,55.4814817928463 M 147.0625,55.793670613174 M 147.709708691208,56.2902913087918 M 148.206329386826,56.9375 M 148.518518207153,57.6911904840545 M 148.625,58.4999999999998 M 148.518518207153,59.3088095159456 M 148.206329386826,60.0625000000004 M 147.709708691208,60.7097086912079 M 147.0625,61.2063293868264 M 146.308809515945,61.5185182071534 M 145.5,61.6249999999999 M 144.691190484055,61.5185182071536 M 151.202933328929,98.0596298039942 M 151.625,98.2344555433772 M 151.987436867076,98.5125631329236 M 152.265544456623,98.875 M 152.440370196006,99.2970666710706 M 152.5,99.75 M 152.440370196006,100.202933328929 M 152.265544456623,100.625 M 151.987436867076,100.987436867076 M 151.625,101.265544456623 M 151.202933328929,101.440370196006 M 150.75,101.5 M 150.297066671071,101.440370196006 M 149.875,101.265544456623 M 149.512563132924,100.987436867076 M 149.234455543377,100.625 M 149.059629803994,100.202933328929 M 149.0,99.75 M 149.059629803994,99.2970666710706 M 149.234455543377,98.875 M 149.512563132924,98.5125631329235 M 149.875,98.2344555433772 M 150.297066671071,98.0596298039941 M 150.75,98.0 M 150.75,15.5 M 151.202933328929,15.5596298039941 M 151.625,15.7344555433772 M 151.987436867076,16.0125631329236 M 152.265544456623,16.3750000000001 M 152.440370196006,16.7970666710706 M 152.5,17.25 M 152.440370196006,17.7029333289294 M 152.265544456623,18.125 M 151.987436867076,18.4874368670764 M 151.625,18.7655444566228 M 151.202933328929,18.9403701960058 M 150.75,19.0 M 150.297066671071,18.9403701960059 M 149.875,18.7655444566228 M 149.512563132924,18.4874368670765 M 149.234455543377,18.125 M 149.059629803994,17.7029333289294 M 149.0,17.25 M 149.059629803994,16.7970666710706 M 149.234455543377,16.375 M 149.512563132924,16.0125631329236 M 149.875,15.7344555433773 M 150.297066671071,15.5596298039942 M 17.25,19.0 M 16.7970666710706,18.9403701960059 M 16.375,18.7655444566228 M 16.0125631329236,18.4874368670765 M 15.7344555433773,18.125 M 15.5596298039941,17.7029333289294 M 15.5,17.25 M 15.5596298039941,16.7970666710706 M 15.7344555433773,16.375 M 16.0125631329236,16.0125631329236 M 16.375,15.7344555433772 M 16.7970666710706,15.5596298039941 M 17.25,15.5 M 17.7029333289294,15.5596298039941 M 18.125,15.7344555433772 M 18.4874368670765,16.0125631329235 M 18.7655444566228,16.375 M 18.9403701960059,16.7970666710706 M 19.0,17.25 M 18.9403701960059,17.7029333289294 M 18.7655444566228,18.125 M 18.4874368670765,18.4874368670765 M 18.125,18.7655444566228 M 17.7029333289294,18.9403701960059 M 17.25,98.0 M 17.7029333289294,98.0596298039941 M 18.125,98.2344555433773 M 18.4874368670765,98.5125631329236 M 18.7655444566228,98.875 M 18.9403701960059,99.2970666710706 M 19.0,99.75 M 18.9403701960059,100.202933328929 M 18.7655444566228,100.625 M 18.4874368670765,100.987436867076 M 18.125,101.265544456623 M 17.7029333289294,101.440370196006 M 17.25,101.5 M 16.7970666710706,101.440370196006 M 16.375,101.265544456623 M 16.0125631329236,100.987436867076 M 15.7344555433772,100.625 M 15.5596298039941,100.202933328929 M 15.5,99.75 M 15.5596298039941,99.2970666710706 M 15.7344555433772,98.875 M 16.0125631329236,98.5125631329235 M 16.375,98.2344555433772 M 16.7970666710706,98.0596298039942 M 133.5,94.5 M 133.888228567654,94.5511112605664 M 134.25,94.7009618943233 M 134.56066017178,94.9393398282202 M 134.799038105676,95.25 M 134.948888739433,95.6117714323462 M 135.0,96.0 M 134.948888739433,96.3882285676538 M 134.799038105676,96.75 M 134.56066017178,97.0606601717798 M 134.25,97.2990381056767 M 133.888228567654,97.4488887394336 M 133.5,97.5 M 133.111771432346,97.4488887394336 M 132.75,97.2990381056767 M 132.43933982822,97.0606601717798 M 132.200961894323,96.75 M 132.051111260566,96.3882285676538 M 132.0,96.0 M 132.051111260566,95.6117714323463 M 132.200961894323,95.25 M 132.43933982822,94.9393398282202 M 132.75,94.7009618943233 M 133.111771432346,94.5511112605664 M 133.5,19.5 M 133.888228567654,19.5511112605664 M 134.25,19.7009618943233 M 134.56066017178,19.9393398282202 M 134.799038105676,20.25 M 134.948888739433,20.6117714323462 M 135.0,21.0 M 134.948888739433,21.3882285676538 M 134.799038105676,21.75 M 134.56066017178,22.0606601717798 M 134.25,22.2990381056767 M 133.888228567654,22.4488887394336 M 133.5,22.5 M 133.111771432346,22.4488887394336 M 132.75,22.2990381056766 M 132.43933982822,22.0606601717798 M 132.200961894323,21.75 M 132.051111260566,21.3882285676538 M 132.0,21.0 M 132.051111260566,20.6117714323462 M 132.200961894323,20.25 M 132.43933982822,19.9393398282202 M 132.75,19.7009618943233 M 133.111771432346,19.5511112605664 M 102.5,19.5 M 102.888228567654,19.5511112605664 M 103.25,19.7009618943234 M 103.56066017178,19.9393398282202 M 103.799038105677,20.25 M 103.948888739434,20.6117714323462 M 104.0,21.0 M 103.948888739434,21.3882285676538 M 103.799038105677,21.75 M 103.56066017178,22.0606601717798 M 103.25,22.2990381056767 M 102.888228567654,22.4488887394336 M 102.5,22.5 M 102.111771432346,22.4488887394336 M 101.75,22.2990381056767 M 101.43933982822,22.0606601717798 M 101.200961894323,21.75 M 101.051111260566,21.3882285676538 M 101.0,21.0 M 101.051111260566,20.6117714323462 M 101.200961894323,20.25 M 101.43933982822,19.9393398282202 M 101.75,19.7009618943234 M 102.111771432346,19.5511112605664 M 102.5,94.5 M 102.888228567654,94.5511112605664 M 103.25,94.7009618943234 M 103.56066017178,94.9393398282202 M 103.799038105677,95.25 M 103.948888739434,95.6117714323462 M 104.0,96.0 M 103.948888739434,96.3882285676538 M 103.799038105677,96.75 M 103.56066017178,97.0606601717798 M 103.25,97.2990381056767 M 102.888228567654,97.4488887394336 M 102.5,97.5 M 102.111771432346,97.4488887394336 M 101.75,97.2990381056767 M 101.43933982822,97.0606601717798 M 101.200961894323,96.75 M 101.051111260566,96.3882285676538 M 101.0,96.0 M 101.051111260566,95.6117714323462 M 101.200961894323,95.25 M 101.43933982822,94.9393398282202 M 101.75,94.7009618943233 M 102.111771432346,94.5511112605664 "
  />
</svg>
